<svg width="110" height="46" viewBox="0 0 110 46" fill="none" xmlns="http://www.w3.org/2000/svg">
<path d="M13 46L13 33L1.1365e-06 33L13 46Z" fill="#B6FFFB" fill-opacity="0.1"/>
<rect x="13" y="33" width="13" height="33" transform="rotate(-180 13 33)" fill="#B6FFFB" fill-opacity="0.1"/>
<rect width="97" height="46" transform="translate(13)" fill="#B6FFFB" fill-opacity="0.1"/>
<path d="M28.5306 29.9694C28.6003 30.0391 28.6556 30.1218 28.6933 30.2128C28.731 30.3039 28.7504 30.4015 28.7504 30.5C28.7504 30.5986 28.731 30.6961 28.6933 30.7872C28.6556 30.8782 28.6003 30.9609 28.5306 31.0306C28.4609 31.1003 28.3782 31.1556 28.2872 31.1933C28.1961 31.231 28.0985 31.2504 28 31.2504C27.9014 31.2504 27.8039 31.231 27.7128 31.1933C27.6218 31.1556 27.539 31.1003 27.4694 31.0306L19.9694 23.5306C19.8996 23.461 19.8443 23.3783 19.8066 23.2872C19.7688 23.1962 19.7494 23.0986 19.7494 23C19.7494 22.9014 19.7688 22.8038 19.8066 22.7128C19.8443 22.6218 19.8996 22.539 19.9694 22.4694L27.4694 14.9694C27.6101 14.8286 27.801 14.7496 28 14.7496C28.199 14.7496 28.3899 14.8286 28.5306 14.9694C28.6713 15.1101 28.7504 15.301 28.7504 15.5C28.7504 15.699 28.6713 15.8899 28.5306 16.0306L21.5603 23L28.5306 29.9694Z" fill="#B6FFFB"/>
<path d="M44.8125 29.5V15.6818H46.4858V21.8352H53.8536V15.6818H55.5269V29.5H53.8536V23.3196H46.4858V29.5H44.8125ZM61.7107 29.7429C61.054 29.7429 60.458 29.6192 59.9227 29.3718C59.3874 29.1199 58.9624 28.7578 58.6475 28.2855C58.3326 27.8087 58.1752 27.233 58.1752 26.5582C58.1752 25.9645 58.2922 25.4832 58.5261 25.1143C58.76 24.741 59.0726 24.4486 59.4639 24.2372C59.8552 24.0258 60.2871 23.8684 60.7594 23.7649C61.2362 23.657 61.7152 23.5715 62.1965 23.5085C62.8262 23.4276 63.3368 23.3668 63.7281 23.3263C64.1239 23.2814 64.4118 23.2071 64.5918 23.1037C64.7762 23.0002 64.8684 22.8203 64.8684 22.5639V22.5099C64.8684 21.8442 64.6862 21.3269 64.3219 20.9581C63.962 20.5893 63.4155 20.4048 62.6823 20.4048C61.9221 20.4048 61.3261 20.5713 60.8943 20.9041C60.4625 21.237 60.1589 21.5923 59.9834 21.9702L58.4721 21.4304C58.742 20.8007 59.1018 20.3104 59.5516 19.9595C60.0059 19.6042 60.5007 19.3568 61.036 19.2173C61.5758 19.0734 62.1065 19.0014 62.6283 19.0014C62.9612 19.0014 63.3435 19.0419 63.7753 19.1229C64.2117 19.1993 64.6322 19.359 65.0371 19.6019C65.4464 19.8448 65.786 20.2114 66.0559 20.7017C66.3258 21.192 66.4607 21.8487 66.4607 22.6719V29.5H64.8684V28.0966H64.7874C64.6795 28.3215 64.4995 28.5621 64.2476 28.8185C63.9958 29.0749 63.6606 29.2931 63.2423 29.473C62.824 29.6529 62.3135 29.7429 61.7107 29.7429ZM61.9536 28.3125C62.5833 28.3125 63.1141 28.1888 63.5459 27.9414C63.9823 27.694 64.3106 27.3746 64.531 26.9833C64.7559 26.592 64.8684 26.1804 64.8684 25.7486V24.2912C64.8009 24.3722 64.6525 24.4464 64.4231 24.5138C64.1982 24.5768 63.9373 24.633 63.6404 24.6825C63.348 24.7275 63.0624 24.768 62.7835 24.804C62.5091 24.8355 62.2865 24.8625 62.1155 24.8849C61.7017 24.9389 61.3149 25.0266 60.955 25.1481C60.5997 25.265 60.3118 25.4427 60.0914 25.6811C59.8755 25.915 59.7675 26.2344 59.7675 26.6392C59.7675 27.1925 59.9722 27.6108 60.3815 27.8942C60.7954 28.1731 61.3194 28.3125 61.9536 28.3125ZM68.7193 26.8551H70.4196C70.4556 27.3229 70.667 27.6783 71.0538 27.9212C71.4452 28.1641 71.9535 28.2855 72.5787 28.2855C73.2174 28.2855 73.764 28.1551 74.2183 27.8942C74.6726 27.6288 74.8997 27.2015 74.8997 26.6122C74.8997 26.2659 74.8143 25.9645 74.6433 25.7081C74.4724 25.4472 74.2318 25.2448 73.9214 25.1009C73.611 24.9569 73.2444 24.8849 72.8216 24.8849H71.0403V23.4545H72.8216C73.4558 23.4545 73.9236 23.3106 74.225 23.0227C74.5309 22.7348 74.6838 22.375 74.6838 21.9432C74.6838 21.4799 74.5196 21.1088 74.1913 20.8299C73.8629 20.5465 73.3974 20.4048 72.7946 20.4048C72.1874 20.4048 71.6813 20.542 71.2765 20.8164C70.8717 21.0863 70.658 21.4349 70.6355 21.8622H68.9622C68.9802 21.3045 69.1511 20.8119 69.475 20.3846C69.7989 19.9528 70.2397 19.6154 70.7975 19.3725C71.3552 19.1251 71.9939 19.0014 72.7136 19.0014C73.4423 19.0014 74.0743 19.1296 74.6096 19.386C75.1494 19.6379 75.5654 19.982 75.8578 20.4183C76.1547 20.8501 76.3031 21.3404 76.3031 21.8892C76.3031 22.474 76.139 22.9463 75.8106 23.3061C75.4822 23.666 75.0707 23.9223 74.5759 24.0753V24.1832C74.9672 24.2102 75.3068 24.3362 75.5947 24.5611C75.8871 24.7815 76.1142 25.0716 76.2761 25.4315C76.4381 25.7868 76.519 26.1804 76.519 26.6122C76.519 27.242 76.3504 27.7907 76.013 28.2585C75.6756 28.7218 75.2123 29.0817 74.6231 29.3381C74.0338 29.59 73.3614 29.7159 72.6057 29.7159C71.8725 29.7159 71.2158 29.5967 70.6355 29.3583C70.0553 29.1154 69.5942 28.7803 69.2524 28.353C68.915 27.9212 68.7373 27.4219 68.7193 26.8551ZM81.8054 29.7429C81.1487 29.7429 80.5527 29.6192 80.0174 29.3718C79.4822 29.1199 79.0571 28.7578 78.7422 28.2855C78.4274 27.8087 78.2699 27.233 78.2699 26.5582C78.2699 25.9645 78.3869 25.4832 78.6208 25.1143C78.8547 24.741 79.1673 24.4486 79.5586 24.2372C79.95 24.0258 80.3818 23.8684 80.8541 23.7649C81.3309 23.657 81.8099 23.5715 82.2912 23.5085C82.921 23.4276 83.4315 23.3668 83.8228 23.3263C84.2187 23.2814 84.5066 23.2071 84.6865 23.1037C84.8709 23.0002 84.9631 22.8203 84.9631 22.5639V22.5099C84.9631 21.8442 84.7809 21.3269 84.4166 20.9581C84.0567 20.5893 83.5102 20.4048 82.777 20.4048C82.0169 20.4048 81.4209 20.5713 80.989 20.9041C80.5572 21.237 80.2536 21.5923 80.0782 21.9702L78.5668 21.4304C78.8367 20.8007 79.1965 20.3104 79.6464 19.9595C80.1007 19.6042 80.5955 19.3568 81.1307 19.2173C81.6705 19.0734 82.2013 19.0014 82.7231 19.0014C83.0559 19.0014 83.4383 19.0419 83.8701 19.1229C84.3064 19.1993 84.727 19.359 85.1318 19.6019C85.5411 19.8448 85.8807 20.2114 86.1506 20.7017C86.4205 21.192 86.5554 21.8487 86.5554 22.6719V29.5H84.9631V28.0966H84.8821C84.7742 28.3215 84.5943 28.5621 84.3424 28.8185C84.0905 29.0749 83.7554 29.2931 83.337 29.473C82.9187 29.6529 82.4082 29.7429 81.8054 29.7429ZM82.0483 28.3125C82.6781 28.3125 83.2089 28.1888 83.6407 27.9414C84.077 27.694 84.4053 27.3746 84.6258 26.9833C84.8507 26.592 84.9631 26.1804 84.9631 25.7486V24.2912C84.8956 24.3722 84.7472 24.4464 84.5178 24.5138C84.2929 24.5768 84.032 24.633 83.7351 24.6825C83.4428 24.7275 83.1571 24.768 82.8782 24.804C82.6039 24.8355 82.3812 24.8625 82.2103 24.8849C81.7964 24.9389 81.4096 25.0266 81.0498 25.1481C80.6944 25.265 80.4065 25.4427 80.1861 25.6811C79.9702 25.915 79.8623 26.2344 79.8623 26.6392C79.8623 27.1925 80.0669 27.6108 80.4763 27.8942C80.8901 28.1731 81.4141 28.3125 82.0483 28.3125ZM88.3552 32.4688V28.0156H89.2189C89.4303 27.7952 89.6125 27.5568 89.7654 27.3004C89.9183 27.044 90.051 26.7404 90.1635 26.3896C90.2804 26.0342 90.3794 25.6024 90.4604 25.0941C90.5413 24.5813 90.6133 23.9628 90.6763 23.2386L91.0271 19.1364H97.6123V28.0156H99.2047V32.4688H97.6123V29.5H89.9476V32.4688H88.3552ZM91.0271 28.0156H96.02V20.6207H92.5115L92.2416 23.2386C92.1292 24.3227 91.9897 25.2695 91.8233 26.0792C91.6569 26.8888 91.3915 27.5343 91.0271 28.0156Z" fill="#B6FFFB"/>
</svg>
