<svg width="320" height="46" viewBox="0 0 320 46" fill="none" xmlns="http://www.w3.org/2000/svg">
<path d="M13 46L13 33L1.1365e-06 33L13 46Z" fill="#B6FFFB"/>
<rect x="13" y="33" width="13" height="33" transform="rotate(-180 13 33)" fill="#B6FFFB"/>
<rect width="294" height="46" transform="translate(13)" fill="#B6FFFB"/>
<path d="M40.7682 15.6818V29.5H39.0949V17.1662H32.1319V29.5H30.4586V15.6818H40.7682ZM43.9276 33.3864V19.1364H45.466V20.7827H45.6549C45.7718 20.6027 45.9338 20.3733 46.1407 20.0945C46.3521 19.8111 46.6535 19.5592 47.0448 19.3388C47.4406 19.1139 47.9759 19.0014 48.6506 19.0014C49.5232 19.0014 50.2924 19.2196 50.9581 19.6559C51.6239 20.0922 52.1434 20.7107 52.5167 21.5114C52.8901 22.312 53.0767 23.2566 53.0767 24.3452C53.0767 25.4427 52.8901 26.3941 52.5167 27.1992C52.1434 27.9999 51.6261 28.6206 50.9649 29.0614C50.3037 29.4978 49.5412 29.7159 48.6776 29.7159C48.0119 29.7159 47.4789 29.6057 47.0785 29.3853C46.6782 29.1604 46.3701 28.9062 46.1542 28.6229C45.9383 28.335 45.7718 28.0966 45.6549 27.9077H45.5199V33.3864H43.9276ZM45.4929 24.3182C45.4929 25.1009 45.6076 25.7913 45.837 26.3896C46.0665 26.9833 46.4016 27.4489 46.8424 27.7862C47.2832 28.1191 47.823 28.2855 48.4617 28.2855C49.1274 28.2855 49.6829 28.1101 50.1282 27.7592C50.5781 27.4039 50.9154 26.9271 51.1403 26.3288C51.3697 25.7261 51.4844 25.0559 51.4844 24.3182C51.4844 23.5895 51.372 22.9328 51.1471 22.348C50.9267 21.7588 50.5915 21.2932 50.1417 20.9513C49.6964 20.605 49.1364 20.4318 48.4617 20.4318C47.814 20.4318 47.2697 20.596 46.8289 20.9244C46.3881 21.2482 46.0552 21.7025 45.8303 22.2873C45.6054 22.8675 45.4929 23.5445 45.4929 24.3182ZM59.716 29.7159C58.7803 29.7159 57.9594 29.4933 57.2532 29.0479C56.5515 28.6026 56.0028 27.9796 55.6069 27.179C55.2156 26.3783 55.0199 25.4427 55.0199 24.3722C55.0199 23.2926 55.2156 22.3503 55.6069 21.5451C56.0028 20.7399 56.5515 20.1147 57.2532 19.6694C57.9594 19.2241 58.7803 19.0014 59.716 19.0014C60.6516 19.0014 61.4702 19.2241 62.1719 19.6694C62.8781 20.1147 63.4269 20.7399 63.8182 21.5451C64.2141 22.3503 64.412 23.2926 64.412 24.3722C64.412 25.4427 64.2141 26.3783 63.8182 27.179C63.4269 27.9796 62.8781 28.6026 62.1719 29.0479C61.4702 29.4933 60.6516 29.7159 59.716 29.7159ZM59.716 28.2855C60.4267 28.2855 61.0114 28.1033 61.4702 27.739C61.929 27.3746 62.2686 26.8956 62.489 26.3018C62.7094 25.7081 62.8196 25.0649 62.8196 24.3722C62.8196 23.6795 62.7094 23.034 62.489 22.4357C62.2686 21.8375 61.929 21.3539 61.4702 20.9851C61.0114 20.6162 60.4267 20.4318 59.716 20.4318C59.0053 20.4318 58.4205 20.6162 57.9617 20.9851C57.5029 21.3539 57.1633 21.8375 56.9429 22.4357C56.7225 23.034 56.6123 23.6795 56.6123 24.3722C56.6123 25.0649 56.7225 25.7081 56.9429 26.3018C57.1633 26.8956 57.5029 27.3746 57.9617 27.739C58.4205 28.1033 59.0053 28.2855 59.716 28.2855ZM65.7361 32.4688V28.0156H66.5997C66.8112 27.7952 66.9933 27.5568 67.1463 27.3004C67.2992 27.044 67.4319 26.7404 67.5443 26.3896C67.6613 26.0342 67.7603 25.6024 67.8412 25.0941C67.9222 24.5813 67.9942 23.9628 68.0571 23.2386L68.408 19.1364H74.9932V28.0156H76.5855V32.4688H74.9932V29.5H67.3284V32.4688H65.7361ZM68.408 28.0156H73.4009V20.6207H69.8924L69.6225 23.2386C69.51 24.3227 69.3706 25.2695 69.2041 26.0792C69.0377 26.8888 68.7723 27.5343 68.408 28.0156ZM82.9093 29.7159C81.9737 29.7159 81.1528 29.4933 80.4466 29.0479C79.7449 28.6026 79.1961 27.9796 78.8003 27.179C78.409 26.3783 78.2133 25.4427 78.2133 24.3722C78.2133 23.2926 78.409 22.3503 78.8003 21.5451C79.1961 20.7399 79.7449 20.1147 80.4466 19.6694C81.1528 19.2241 81.9737 19.0014 82.9093 19.0014C83.8449 19.0014 84.6636 19.2241 85.3653 19.6694C86.0715 20.1147 86.6203 20.7399 87.0116 21.5451C87.4074 22.3503 87.6053 23.2926 87.6053 24.3722C87.6053 25.4427 87.4074 26.3783 87.0116 27.179C86.6203 27.9796 86.0715 28.6026 85.3653 29.0479C84.6636 29.4933 83.8449 29.7159 82.9093 29.7159ZM82.9093 28.2855C83.62 28.2855 84.2048 28.1033 84.6636 27.739C85.1224 27.3746 85.462 26.8956 85.6824 26.3018C85.9028 25.7081 86.013 25.0649 86.013 24.3722C86.013 23.6795 85.9028 23.034 85.6824 22.4357C85.462 21.8375 85.1224 21.3539 84.6636 20.9851C84.2048 20.6162 83.62 20.4318 82.9093 20.4318C82.1986 20.4318 81.6139 20.6162 81.1551 20.9851C80.6962 21.3539 80.3566 21.8375 80.1362 22.4357C79.9158 23.034 79.8056 23.6795 79.8056 24.3722C79.8056 25.0649 79.9158 25.7081 80.1362 26.3018C80.3566 26.8956 80.6962 27.3746 81.1551 27.739C81.6139 28.1033 82.1986 28.2855 82.9093 28.2855ZM89.1184 29.5V28.0156H89.4962C89.8066 28.0156 90.0652 27.9549 90.2722 27.8335C90.4791 27.7075 90.6455 27.4893 90.7714 27.179C90.9019 26.8641 91.0008 26.4278 91.0683 25.87C91.1403 25.3078 91.192 24.5926 91.2235 23.7244L91.4124 19.1364H98.3215V29.5H96.7292V20.6207H92.9238L92.7619 24.3182C92.7259 25.1683 92.6494 25.9173 92.5324 26.565C92.42 27.2082 92.2468 27.748 92.0129 28.1843C91.7835 28.6206 91.4776 28.949 91.0953 29.1694C90.713 29.3898 90.2339 29.5 89.6582 29.5H89.1184ZM100.595 29.5L104.806 24.2372L100.649 19.1364H102.538L105.993 23.5625H106.857V19.1364H108.449V23.5625H109.286L112.74 19.1364H114.629L110.5 24.2372L114.683 29.5H112.767L109.259 25.0469H108.449V29.5H106.857V25.0469H106.047L102.511 29.5H100.595ZM118.551 27.152L123.544 19.1364H125.379V29.5H123.787V21.4844L118.821 29.5H116.959V19.1364H118.551V27.152ZM126.886 20.6207V19.1364H135.306V20.6207H131.905V29.5H130.313V20.6207H126.886ZM139.005 22.8878H141.974C143.188 22.8878 144.117 23.1959 144.761 23.8121C145.404 24.4284 145.725 25.2088 145.725 26.1534C145.725 26.7741 145.581 27.3387 145.294 27.8469C145.006 28.3507 144.583 28.7533 144.025 29.0547C143.467 29.3516 142.784 29.5 141.974 29.5H137.629V19.1364H139.221V28.0156H141.974C142.604 28.0156 143.121 27.8492 143.526 27.5163C143.931 27.1835 144.133 26.7562 144.133 26.2344C144.133 25.6856 143.931 25.238 143.526 24.8917C143.121 24.5453 142.604 24.3722 141.974 24.3722H139.005V22.8878ZM154.519 33.3864C154.249 33.3864 154.008 33.3639 153.797 33.3189C153.585 33.2784 153.439 33.2379 153.358 33.1974L153.763 31.794C154.15 31.893 154.492 31.929 154.788 31.902C155.085 31.875 155.348 31.7423 155.578 31.5039C155.812 31.27 156.025 30.8899 156.219 30.3636L156.516 29.554L152.683 19.1364H154.411L157.271 27.3949H157.379L160.24 19.1364H161.967L157.568 31.0114C157.37 31.5466 157.125 31.9897 156.833 32.3406C156.54 32.6959 156.201 32.959 155.814 33.13C155.432 33.3009 155 33.3864 154.519 33.3864ZM164.069 29.5V19.1364H172.22V29.5H170.627V20.6207H165.662V29.5H164.069ZM175.128 33.3864V19.1364H176.666V20.7827H176.855C176.972 20.6027 177.134 20.3733 177.341 20.0945C177.552 19.8111 177.854 19.5592 178.245 19.3388C178.641 19.1139 179.176 19.0014 179.851 19.0014C180.723 19.0014 181.493 19.2196 182.158 19.6559C182.824 20.0922 183.344 20.7107 183.717 21.5114C184.09 22.312 184.277 23.2566 184.277 24.3452C184.277 25.4427 184.09 26.3941 183.717 27.1992C183.344 27.9999 182.826 28.6206 182.165 29.0614C181.504 29.4978 180.741 29.7159 179.878 29.7159C179.212 29.7159 178.679 29.6057 178.279 29.3853C177.878 29.1604 177.57 28.9062 177.354 28.6229C177.138 28.335 176.972 28.0966 176.855 27.9077H176.72V33.3864H175.128ZM176.693 24.3182C176.693 25.1009 176.808 25.7913 177.037 26.3896C177.267 26.9833 177.602 27.4489 178.043 27.7862C178.483 28.1191 179.023 28.2855 179.662 28.2855C180.328 28.2855 180.883 28.1101 181.328 27.7592C181.778 27.4039 182.116 26.9271 182.341 26.3288C182.57 25.7261 182.685 25.0559 182.685 24.3182C182.685 23.5895 182.572 22.9328 182.347 22.348C182.127 21.7588 181.792 21.2932 181.342 20.9513C180.897 20.605 180.337 20.4318 179.662 20.4318C179.014 20.4318 178.47 20.596 178.029 20.9244C177.588 21.2482 177.255 21.7025 177.03 22.2873C176.806 22.8675 176.693 23.5445 176.693 24.3182ZM189.756 29.7429C189.099 29.7429 188.503 29.6192 187.968 29.3718C187.432 29.1199 187.007 28.7578 186.692 28.2855C186.378 27.8087 186.22 27.233 186.22 26.5582C186.22 25.9645 186.337 25.4832 186.571 25.1143C186.805 24.741 187.117 24.4486 187.509 24.2372C187.9 24.0258 188.332 23.8684 188.804 23.7649C189.281 23.657 189.76 23.5715 190.241 23.5085C190.871 23.4276 191.382 23.3668 191.773 23.3263C192.169 23.2814 192.457 23.2071 192.637 23.1037C192.821 23.0002 192.913 22.8203 192.913 22.5639V22.5099C192.913 21.8442 192.731 21.3269 192.367 20.9581C192.007 20.5893 191.46 20.4048 190.727 20.4048C189.967 20.4048 189.371 20.5713 188.939 20.9041C188.507 21.237 188.204 21.5923 188.028 21.9702L186.517 21.4304C186.787 20.8007 187.147 20.3104 187.597 19.9595C188.051 19.6042 188.546 19.3568 189.081 19.2173C189.621 19.0734 190.151 19.0014 190.673 19.0014C191.006 19.0014 191.388 19.0419 191.82 19.1229C192.257 19.1993 192.677 19.359 193.082 19.6019C193.491 19.8448 193.831 20.2114 194.101 20.7017C194.371 21.192 194.506 21.8487 194.506 22.6719V29.5H192.913V28.0966H192.832C192.724 28.3215 192.544 28.5621 192.293 28.8185C192.041 29.0749 191.706 29.2931 191.287 29.473C190.869 29.6529 190.358 29.7429 189.756 29.7429ZM189.999 28.3125C190.628 28.3125 191.159 28.1888 191.591 27.9414C192.027 27.694 192.356 27.3746 192.576 26.9833C192.801 26.592 192.913 26.1804 192.913 25.7486V24.2912C192.846 24.3722 192.697 24.4464 192.468 24.5138C192.243 24.5768 191.982 24.633 191.685 24.6825C191.393 24.7275 191.107 24.768 190.828 24.804C190.554 24.8355 190.331 24.8625 190.16 24.8849C189.747 24.9389 189.36 25.0266 189 25.1481C188.645 25.265 188.357 25.4427 188.136 25.6811C187.92 25.915 187.812 26.2344 187.812 26.6392C187.812 27.1925 188.017 27.6108 188.426 27.8942C188.84 28.1731 189.364 28.3125 189.999 28.3125ZM196.764 29.5L200.974 24.2372L196.818 19.1364H198.707L202.162 23.5625H203.026V19.1364H204.618V23.5625H205.455L208.909 19.1364H210.798L206.669 24.2372L210.852 29.5H208.936L205.428 25.0469H204.618V29.5H203.026V25.0469H202.216L198.68 29.5H196.764ZM220.064 23.5895V25.0739H214.342V23.5895H220.064ZM214.72 19.1364V29.5H213.128V19.1364H214.72ZM221.278 19.1364V29.5H219.686V19.1364H221.278ZM228.532 29.7159C227.533 29.7159 226.672 29.4955 225.947 29.0547C225.228 28.6094 224.672 27.9886 224.281 27.1925C223.894 26.3918 223.701 25.4607 223.701 24.3991C223.701 23.3376 223.894 22.402 224.281 21.5923C224.672 20.7782 225.216 20.1439 225.914 19.6896C226.615 19.2308 227.434 19.0014 228.37 19.0014C228.909 19.0014 229.442 19.0914 229.969 19.2713C230.495 19.4512 230.974 19.7436 231.406 20.1484C231.838 20.5488 232.182 21.0795 232.438 21.7408C232.695 22.402 232.823 23.2161 232.823 24.1832V24.858H224.834V23.4815H231.203C231.203 22.8968 231.086 22.375 230.853 21.9162C230.623 21.4574 230.295 21.0953 229.867 20.8299C229.445 20.5645 228.945 20.4318 228.37 20.4318C227.735 20.4318 227.187 20.5893 226.723 20.9041C226.265 21.2145 225.911 21.6193 225.664 22.1186C225.417 22.6179 225.293 23.1532 225.293 23.7244V24.642C225.293 25.4247 225.428 26.0882 225.698 26.6325C225.972 27.1722 226.352 27.5838 226.838 27.8672C227.324 28.1461 227.888 28.2855 228.532 28.2855C228.95 28.2855 229.328 28.227 229.665 28.1101C230.007 27.9886 230.302 27.8087 230.549 27.5703C230.796 27.3274 230.988 27.026 231.122 26.6662L232.661 27.098C232.499 27.6198 232.227 28.0786 231.844 28.4744C231.462 28.8658 230.99 29.1716 230.428 29.392C229.865 29.608 229.233 29.7159 228.532 29.7159ZM242.181 23.5895V25.0739H236.459V23.5895H242.181ZM236.837 19.1364V29.5H235.245V19.1364H236.837ZM243.396 19.1364V29.5H241.803V19.1364H243.396ZM247.896 27.152L252.889 19.1364H254.724V29.5H253.132V21.4844L248.166 29.5H246.304V19.1364H247.896V27.152ZM261.986 29.7159C260.987 29.7159 260.126 29.4955 259.402 29.0547C258.682 28.6094 258.126 27.9886 257.735 27.1925C257.348 26.3918 257.155 25.4607 257.155 24.3991C257.155 23.3376 257.348 22.402 257.735 21.5923C258.126 20.7782 258.671 20.1439 259.368 19.6896C260.069 19.2308 260.888 19.0014 261.824 19.0014C262.364 19.0014 262.897 19.0914 263.423 19.2713C263.949 19.4512 264.428 19.7436 264.86 20.1484C265.292 20.5488 265.636 21.0795 265.892 21.7408C266.149 22.402 266.277 23.2161 266.277 24.1832V24.858H258.288V23.4815H264.658C264.658 22.8968 264.541 22.375 264.307 21.9162C264.077 21.4574 263.749 21.0953 263.322 20.8299C262.899 20.5645 262.399 20.4318 261.824 20.4318C261.189 20.4318 260.641 20.5893 260.177 20.9041C259.719 21.2145 259.366 21.6193 259.118 22.1186C258.871 22.6179 258.747 23.1532 258.747 23.7244V24.642C258.747 25.4247 258.882 26.0882 259.152 26.6325C259.426 27.1722 259.806 27.5838 260.292 27.8672C260.778 28.1461 261.342 28.2855 261.986 28.2855C262.404 28.2855 262.782 28.227 263.119 28.1101C263.461 27.9886 263.756 27.8087 264.003 27.5703C264.25 27.3274 264.442 27.026 264.577 26.6662L266.115 27.098C265.953 27.6198 265.681 28.0786 265.299 28.4744C264.916 28.8658 264.444 29.1716 263.882 29.392C263.319 29.608 262.687 29.7159 261.986 29.7159Z" fill="#232323"/>
<path d="M286.531 23.5306L279.031 31.0306C278.961 31.1003 278.878 31.1556 278.787 31.1933C278.696 31.231 278.598 31.2504 278.5 31.2504C278.401 31.2504 278.304 31.231 278.213 31.1933C278.122 31.1556 278.039 31.1003 277.969 31.0306C277.9 30.9609 277.844 30.8782 277.807 30.7872C277.769 30.6961 277.75 30.5985 277.75 30.5C277.75 30.4014 277.769 30.3039 277.807 30.2128C277.844 30.1218 277.9 30.039 277.969 29.9694L284.94 23L277.969 16.0306C277.829 15.8899 277.75 15.699 277.75 15.5C277.75 15.301 277.829 15.1101 277.969 14.9694C278.11 14.8286 278.301 14.7496 278.5 14.7496C278.699 14.7496 278.89 14.8286 279.031 14.9694L286.531 22.4694C286.6 22.539 286.656 22.6217 286.693 22.7128C286.731 22.8038 286.751 22.9014 286.751 23C286.751 23.0986 286.731 23.1961 286.693 23.2872C286.656 23.3782 286.6 23.461 286.531 23.5306Z" fill="#232323"/>
<path d="M307 0V13L320 13L307 0Z" fill="#B6FFFB"/>
<rect x="307" y="13" width="13" height="33" fill="#B6FFFB"/>
</svg>
