<svg width="328" height="46" viewBox="0 0 328 46" fill="none" xmlns="http://www.w3.org/2000/svg">
<path d="M13 46L13 33L1.1365e-06 33L13 46Z" fill="#B6FFFB" fill-opacity="0.1"/>
<rect x="13" y="33" width="13" height="33" transform="rotate(-180 13 33)" fill="#B6FFFB" fill-opacity="0.1"/>
<rect width="302" height="46" transform="translate(13)" fill="#B6FFFB" fill-opacity="0.1"/>
<path opacity="0.2" d="M72 23C72 24.78 71.4722 26.5201 70.4832 28.0001C69.4943 29.4802 68.0887 30.6337 66.4442 31.3149C64.7996 31.9961 62.99 32.1743 61.2442 31.8271C59.4984 31.4798 57.8947 30.6226 56.636 29.364C55.3774 28.1053 54.5202 26.5016 54.1729 24.7558C53.8257 23.01 54.0039 21.2004 54.6851 19.5558C55.3663 17.9113 56.5198 16.5057 57.9999 15.5168C59.4799 14.5278 61.22 14 63 14C65.387 14 67.6761 14.9482 69.364 16.636C71.0518 18.3239 72 20.6131 72 23Z" fill="#B6FFFB" fill-opacity="0.2"/>
<path d="M64.5 27.5C64.5 27.6989 64.421 27.8897 64.2803 28.0303C64.1397 28.171 63.9489 28.25 63.75 28.25C63.3522 28.25 62.9706 28.092 62.6893 27.8107C62.408 27.5294 62.25 27.1478 62.25 26.75V23C62.0511 23 61.8603 22.921 61.7197 22.7803C61.579 22.6397 61.5 22.4489 61.5 22.25C61.5 22.0511 61.579 21.8603 61.7197 21.7197C61.8603 21.579 62.0511 21.5 62.25 21.5C62.6478 21.5 63.0294 21.658 63.3107 21.9393C63.592 22.2206 63.75 22.6022 63.75 23V26.75C63.9489 26.75 64.1397 26.829 64.2803 26.9697C64.421 27.1103 64.5 27.3011 64.5 27.5ZM72.75 23C72.75 24.9284 72.1782 26.8134 71.1068 28.4168C70.0355 30.0202 68.5127 31.2699 66.7312 32.0078C64.9496 32.7458 62.9892 32.9389 61.0979 32.5627C59.2066 32.1865 57.4693 31.2579 56.1057 29.8943C54.7422 28.5307 53.8136 26.7934 53.4373 24.9021C53.0611 23.0108 53.2542 21.0504 53.9922 19.2688C54.7301 17.4873 55.9798 15.9645 57.5832 14.8932C59.1866 13.8218 61.0716 13.25 63 13.25C65.585 13.2527 68.0634 14.2808 69.8913 16.1087C71.7192 17.9366 72.7473 20.415 72.75 23ZM71.25 23C71.25 21.3683 70.7661 19.7733 69.8596 18.4165C68.9531 17.0598 67.6646 16.0024 66.1571 15.378C64.6497 14.7536 62.9909 14.5902 61.3905 14.9085C59.7902 15.2268 58.3202 16.0126 57.1664 17.1664C56.0126 18.3202 55.2269 19.7902 54.9085 21.3905C54.5902 22.9908 54.7536 24.6496 55.378 26.1571C56.0024 27.6646 57.0598 28.9531 58.4165 29.8596C59.7733 30.7661 61.3683 31.25 63 31.25C65.1873 31.2475 67.2843 30.3775 68.8309 28.8309C70.3775 27.2843 71.2475 25.1873 71.25 23ZM62.625 20C62.8475 20 63.065 19.934 63.25 19.8104C63.435 19.6868 63.5792 19.5111 63.6644 19.3055C63.7495 19.1 63.7718 18.8738 63.7284 18.6555C63.685 18.4373 63.5778 18.2368 63.4205 18.0795C63.2632 17.9222 63.0627 17.815 62.8445 17.7716C62.6263 17.7282 62.4001 17.7505 62.1945 17.8356C61.9889 17.9208 61.8132 18.065 61.6896 18.25C61.566 18.435 61.5 18.6525 61.5 18.875C61.5 19.1734 61.6185 19.4595 61.8295 19.6705C62.0405 19.8815 62.3266 20 62.625 20Z" fill="#B6FFFB"/>
<path d="M94.2804 20H92.6071C92.5082 19.5187 92.335 19.0959 92.0876 18.7315C91.8447 18.3672 91.5478 18.0613 91.197 17.8139C90.8506 17.562 90.466 17.3731 90.0432 17.2472C89.6204 17.1212 89.1796 17.0582 88.7207 17.0582C87.8841 17.0582 87.1262 17.2696 86.447 17.6925C85.7722 18.1153 85.2347 18.7383 84.8344 19.5614C84.4386 20.3846 84.2406 21.3944 84.2406 22.5909C84.2406 23.7874 84.4386 24.7972 84.8344 25.6204C85.2347 26.4435 85.7722 27.0665 86.447 27.4893C87.1262 27.9122 87.8841 28.1236 88.7207 28.1236C89.1796 28.1236 89.6204 28.0606 90.0432 27.9347C90.466 27.8087 90.8506 27.622 91.197 27.3746C91.5478 27.1228 91.8447 26.8146 92.0876 26.4503C92.335 26.0814 92.5082 25.6586 92.6071 25.1818H94.2804C94.1545 25.888 93.9251 26.52 93.5922 27.0778C93.2593 27.6355 92.8455 28.1101 92.3507 28.5014C91.8559 28.8883 91.3004 29.1829 90.6842 29.3853C90.0724 29.5877 89.418 29.6889 88.7207 29.6889C87.5422 29.6889 86.4942 29.401 85.5766 28.8253C84.659 28.2495 83.937 27.4309 83.4107 26.3693C82.8845 25.3078 82.6213 24.0483 82.6213 22.5909C82.6213 21.1335 82.8845 19.8741 83.4107 18.8125C83.937 17.7509 84.659 16.9323 85.5766 16.3565C86.4942 15.7808 87.5422 15.4929 88.7207 15.4929C89.418 15.4929 90.0724 15.5941 90.6842 15.7965C91.3004 15.9989 91.8559 16.2958 92.3507 16.6871C92.8455 17.074 93.2593 17.5463 93.5922 18.104C93.9251 18.6573 94.1545 19.2893 94.2804 20ZM102.436 27.3409L106.053 19.1364H107.564L103.084 29.5H101.788L97.3892 19.1364H98.8735L102.436 27.3409ZM98.3608 19.1364V29.5H96.7684V19.1364H98.3608ZM106.511 29.5V19.1364H108.104V29.5H106.511ZM115.229 29.7159C114.293 29.7159 113.472 29.4933 112.766 29.0479C112.064 28.6026 111.515 27.9796 111.12 27.179C110.728 26.3783 110.533 25.4427 110.533 24.3722C110.533 23.2926 110.728 22.3503 111.12 21.5451C111.515 20.7399 112.064 20.1147 112.766 19.6694C113.472 19.2241 114.293 19.0014 115.229 19.0014C116.164 19.0014 116.983 19.2241 117.685 19.6694C118.391 20.1147 118.94 20.7399 119.331 21.5451C119.727 22.3503 119.925 23.2926 119.925 24.3722C119.925 25.4427 119.727 26.3783 119.331 27.179C118.94 27.9796 118.391 28.6026 117.685 29.0479C116.983 29.4933 116.164 29.7159 115.229 29.7159ZM115.229 28.2855C115.939 28.2855 116.524 28.1033 116.983 27.739C117.442 27.3746 117.781 26.8956 118.002 26.3018C118.222 25.7081 118.332 25.0649 118.332 24.3722C118.332 23.6795 118.222 23.034 118.002 22.4357C117.781 21.8375 117.442 21.3539 116.983 20.9851C116.524 20.6162 115.939 20.4318 115.229 20.4318C114.518 20.4318 113.933 20.6162 113.474 20.9851C113.016 21.3539 112.676 21.8375 112.456 22.4357C112.235 23.034 112.125 23.6795 112.125 24.3722C112.125 25.0649 112.235 25.7081 112.456 26.3018C112.676 26.8956 113.016 27.3746 113.474 27.739C113.933 28.1033 114.518 28.2855 115.229 28.2855ZM121.001 20.6207V19.1364H129.421V20.6207H126.021V29.5H124.428V20.6207H121.001ZM131.744 33.3864V19.1364H133.282V20.7827H133.471C133.588 20.6027 133.75 20.3733 133.957 20.0945C134.168 19.8111 134.47 19.5592 134.861 19.3388C135.257 19.1139 135.792 19.0014 136.467 19.0014C137.34 19.0014 138.109 19.2196 138.775 19.6559C139.44 20.0922 139.96 20.7107 140.333 21.5114C140.706 22.312 140.893 23.2566 140.893 24.3452C140.893 25.4427 140.706 26.3941 140.333 27.1992C139.96 27.9999 139.443 28.6206 138.781 29.0614C138.12 29.4978 137.358 29.7159 136.494 29.7159C135.828 29.7159 135.295 29.6057 134.895 29.3853C134.495 29.1604 134.186 28.9062 133.971 28.6229C133.755 28.335 133.588 28.0966 133.471 27.9077H133.336V33.3864H131.744ZM133.309 24.3182C133.309 25.1009 133.424 25.7913 133.653 26.3896C133.883 26.9833 134.218 27.4489 134.659 27.7862C135.1 28.1191 135.639 28.2855 136.278 28.2855C136.944 28.2855 137.499 28.1101 137.945 27.7592C138.394 27.4039 138.732 26.9271 138.957 26.3288C139.186 25.7261 139.301 25.0559 139.301 24.3182C139.301 23.5895 139.188 22.9328 138.963 22.348C138.743 21.7588 138.408 21.2932 137.958 20.9513C137.513 20.605 136.953 20.4318 136.278 20.4318C135.63 20.4318 135.086 20.596 134.645 20.9244C134.204 21.2482 133.872 21.7025 133.647 22.2873C133.422 22.8675 133.309 23.5445 133.309 24.3182ZM147.667 29.7159C146.669 29.7159 145.807 29.4955 145.083 29.0547C144.363 28.6094 143.808 27.9886 143.417 27.1925C143.03 26.3918 142.836 25.4607 142.836 24.3991C142.836 23.3376 143.03 22.402 143.417 21.5923C143.808 20.7782 144.352 20.1439 145.049 19.6896C145.751 19.2308 146.57 19.0014 147.505 19.0014C148.045 19.0014 148.578 19.0914 149.104 19.2713C149.631 19.4512 150.11 19.7436 150.542 20.1484C150.973 20.5488 151.318 21.0795 151.574 21.7408C151.83 22.402 151.958 23.2161 151.958 24.1832V24.858H143.97V23.4815H150.339C150.339 22.8968 150.222 22.375 149.988 21.9162C149.759 21.4574 149.431 21.0953 149.003 20.8299C148.58 20.5645 148.081 20.4318 147.505 20.4318C146.871 20.4318 146.322 20.5893 145.859 20.9041C145.4 21.2145 145.047 21.6193 144.8 22.1186C144.552 22.6179 144.429 23.1532 144.429 23.7244V24.642C144.429 25.4247 144.564 26.0882 144.833 26.6325C145.108 27.1722 145.488 27.5838 145.974 27.8672C146.46 28.1461 147.024 28.2855 147.667 28.2855C148.086 28.2855 148.463 28.227 148.801 28.1101C149.143 27.9886 149.437 27.8087 149.685 27.5703C149.932 27.3274 150.123 27.026 150.258 26.6662L151.797 27.098C151.635 27.6198 151.362 28.0786 150.98 28.4744C150.598 28.8658 150.126 29.1716 149.563 29.392C149.001 29.608 148.369 29.7159 147.667 29.7159ZM153.416 20.6207V19.1364H161.836V20.6207H158.436V29.5H156.843V20.6207H153.416ZM165.535 22.8878H168.504C169.719 22.8878 170.648 23.1959 171.291 23.8121C171.934 24.4284 172.256 25.2088 172.256 26.1534C172.256 26.7741 172.112 27.3387 171.824 27.8469C171.536 28.3507 171.113 28.7533 170.555 29.0547C169.998 29.3516 169.314 29.5 168.504 29.5H164.159V19.1364H165.751V28.0156H168.504C169.134 28.0156 169.651 27.8492 170.056 27.5163C170.461 27.1835 170.663 26.7562 170.663 26.2344C170.663 25.6856 170.461 25.238 170.056 24.8917C169.651 24.5453 169.134 24.3722 168.504 24.3722H165.535V22.8878ZM180.023 29.5V19.1364H188.174V29.5H186.582V20.6207H181.616V29.5H180.023ZM195.292 29.7159C194.357 29.7159 193.536 29.4933 192.829 29.0479C192.128 28.6026 191.579 27.9796 191.183 27.179C190.792 26.3783 190.596 25.4427 190.596 24.3722C190.596 23.2926 190.792 22.3503 191.183 21.5451C191.579 20.7399 192.128 20.1147 192.829 19.6694C193.536 19.2241 194.357 19.0014 195.292 19.0014C196.228 19.0014 197.046 19.2241 197.748 19.6694C198.454 20.1147 199.003 20.7399 199.394 21.5451C199.79 22.3503 199.988 23.2926 199.988 24.3722C199.988 25.4427 199.79 26.3783 199.394 27.179C199.003 27.9796 198.454 28.6026 197.748 29.0479C197.046 29.4933 196.228 29.7159 195.292 29.7159ZM195.292 28.2855C196.003 28.2855 196.588 28.1033 197.046 27.739C197.505 27.3746 197.845 26.8956 198.065 26.3018C198.286 25.7081 198.396 25.0649 198.396 24.3722C198.396 23.6795 198.286 23.034 198.065 22.4357C197.845 21.8375 197.505 21.3539 197.046 20.9851C196.588 20.6162 196.003 20.4318 195.292 20.4318C194.581 20.4318 193.997 20.6162 193.538 20.9851C193.079 21.3539 192.739 21.8375 192.519 22.4357C192.299 23.034 192.188 23.6795 192.188 24.3722C192.188 25.0649 192.299 25.7081 192.519 26.3018C192.739 26.8956 193.079 27.3746 193.538 27.739C193.997 28.1033 194.581 28.2855 195.292 28.2855ZM201.312 32.4688V28.0156H202.176C202.387 27.7952 202.569 27.5568 202.722 27.3004C202.875 27.044 203.008 26.7404 203.121 26.3896C203.237 26.0342 203.336 25.6024 203.417 25.0941C203.498 24.5813 203.57 23.9628 203.633 23.2386L203.984 19.1364H210.569V28.0156H212.162V32.4688H210.569V29.5H202.905V32.4688H201.312ZM203.984 28.0156H208.977V20.6207H205.469L205.199 23.2386C205.086 24.3227 204.947 25.2695 204.78 26.0792C204.614 26.8888 204.348 27.5343 203.984 28.0156ZM218.485 29.7159C217.514 29.7159 216.677 29.4865 215.976 29.0277C215.274 28.5689 214.734 27.9369 214.356 27.1317C213.978 26.3266 213.789 25.4067 213.789 24.3722C213.789 23.3196 213.983 22.3907 214.37 21.5856C214.761 20.7759 215.305 20.1439 216.003 19.6896C216.704 19.2308 217.523 19.0014 218.458 19.0014C219.187 19.0014 219.844 19.1364 220.429 19.4062C221.013 19.6761 221.492 20.054 221.866 20.5398C222.239 21.0256 222.471 21.5923 222.561 22.2401H220.968C220.847 21.7678 220.577 21.3494 220.159 20.9851C219.745 20.6162 219.187 20.4318 218.485 20.4318C217.865 20.4318 217.32 20.5937 216.853 20.9176C216.389 21.237 216.027 21.689 215.766 22.2738C215.51 22.854 215.382 23.5355 215.382 24.3182C215.382 25.1188 215.508 25.8161 215.76 26.4098C216.016 27.0036 216.376 27.4646 216.839 27.793C217.307 28.1213 217.856 28.2855 218.485 28.2855C218.899 28.2855 219.275 28.2135 219.612 28.0696C219.95 27.9257 220.235 27.7188 220.469 27.4489C220.703 27.179 220.869 26.8551 220.968 26.4773H222.561C222.471 27.089 222.248 27.64 221.893 28.1303C221.542 28.6161 221.076 29.003 220.496 29.2908C219.92 29.5742 219.25 29.7159 218.485 29.7159ZM224.889 29.5V19.1364H226.481V23.6435H227.533L231.258 19.1364H233.309L229.126 24.1293L233.363 29.5H231.312L227.911 25.1278H226.481V29.5H224.889ZM238.143 29.7429C237.487 29.7429 236.891 29.6192 236.355 29.3718C235.82 29.1199 235.395 28.7578 235.08 28.2855C234.765 27.8087 234.608 27.233 234.608 26.5582C234.608 25.9645 234.725 25.4832 234.959 25.1143C235.193 24.741 235.505 24.4486 235.897 24.2372C236.288 24.0258 236.72 23.8684 237.192 23.7649C237.669 23.657 238.148 23.5715 238.629 23.5085C239.259 23.4276 239.769 23.3668 240.161 23.3263C240.557 23.2814 240.844 23.2071 241.024 23.1037C241.209 23.0002 241.301 22.8203 241.301 22.5639V22.5099C241.301 21.8442 241.119 21.3269 240.754 20.9581C240.395 20.5893 239.848 20.4048 239.115 20.4048C238.355 20.4048 237.759 20.5713 237.327 20.9041C236.895 21.237 236.591 21.5923 236.416 21.9702L234.905 21.4304C235.175 20.8007 235.534 20.3104 235.984 19.9595C236.439 19.6042 236.933 19.3568 237.469 19.2173C238.008 19.0734 238.539 19.0014 239.061 19.0014C239.394 19.0014 239.776 19.0419 240.208 19.1229C240.644 19.1993 241.065 19.359 241.47 19.6019C241.879 19.8448 242.219 20.2114 242.489 20.7017C242.758 21.192 242.893 21.8487 242.893 22.6719V29.5H241.301V28.0966H241.22C241.112 28.3215 240.932 28.5621 240.68 28.8185C240.428 29.0749 240.093 29.2931 239.675 29.473C239.257 29.6529 238.746 29.7429 238.143 29.7429ZM238.386 28.3125C239.016 28.3125 239.547 28.1888 239.979 27.9414C240.415 27.694 240.743 27.3746 240.964 26.9833C241.189 26.592 241.301 26.1804 241.301 25.7486V24.2912C241.234 24.3722 241.085 24.4464 240.856 24.5138C240.631 24.5768 240.37 24.633 240.073 24.6825C239.781 24.7275 239.495 24.768 239.216 24.804C238.942 24.8355 238.719 24.8625 238.548 24.8849C238.134 24.9389 237.747 25.0266 237.388 25.1481C237.032 25.265 236.744 25.4427 236.524 25.6811C236.308 25.915 236.2 26.2344 236.2 26.6392C236.2 27.1925 236.405 27.6108 236.814 27.8942C237.228 28.1731 237.752 28.3125 238.386 28.3125ZM245.152 26.8551H246.852C246.888 27.3229 247.1 27.6783 247.486 27.9212C247.878 28.1641 248.386 28.2855 249.011 28.2855C249.65 28.2855 250.197 28.1551 250.651 27.8942C251.105 27.6288 251.332 27.2015 251.332 26.6122C251.332 26.2659 251.247 25.9645 251.076 25.7081C250.905 25.4472 250.664 25.2448 250.354 25.1009C250.044 24.9569 249.677 24.8849 249.254 24.8849H247.473V23.4545H249.254C249.888 23.4545 250.356 23.3106 250.658 23.0227C250.963 22.7348 251.116 22.375 251.116 21.9432C251.116 21.4799 250.952 21.1088 250.624 20.8299C250.296 20.5465 249.83 20.4048 249.227 20.4048C248.62 20.4048 248.114 20.542 247.709 20.8164C247.304 21.0863 247.091 21.4349 247.068 21.8622H245.395C245.413 21.3045 245.584 20.8119 245.908 20.3846C246.231 19.9528 246.672 19.6154 247.23 19.3725C247.788 19.1251 248.427 19.0014 249.146 19.0014C249.875 19.0014 250.507 19.1296 251.042 19.386C251.582 19.6379 251.998 19.982 252.29 20.4183C252.587 20.8501 252.736 21.3404 252.736 21.8892C252.736 22.474 252.572 22.9463 252.243 23.3061C251.915 23.666 251.503 23.9223 251.008 24.0753V24.1832C251.4 24.2102 251.739 24.3362 252.027 24.5611C252.32 24.7815 252.547 25.0716 252.709 25.4315C252.871 25.7868 252.952 26.1804 252.952 26.6122C252.952 27.242 252.783 27.7907 252.446 28.2585C252.108 28.7218 251.645 29.0817 251.056 29.3381C250.466 29.59 249.794 29.7159 249.038 29.7159C248.305 29.7159 247.648 29.5967 247.068 29.3583C246.488 29.1154 246.027 28.7803 245.685 28.353C245.348 27.9212 245.17 27.4219 245.152 26.8551ZM255.188 29.5V19.1364H256.781V23.6435H257.833L261.558 19.1364H263.609L259.426 24.1293L263.663 29.5H261.612L258.211 25.1278H256.781V29.5H255.188ZM266.419 33.3864C266.149 33.3864 265.908 33.3639 265.697 33.3189C265.486 33.2784 265.339 33.2379 265.258 33.1974L265.663 31.794C266.05 31.893 266.392 31.929 266.689 31.902C266.986 31.875 267.249 31.7423 267.478 31.5039C267.712 31.27 267.926 30.8899 268.119 30.3636L268.416 29.554L264.584 19.1364H266.311L269.172 27.3949H269.28L272.141 19.1364H273.868L269.469 31.0114C269.271 31.5466 269.026 31.9897 268.733 32.3406C268.441 32.6959 268.101 32.959 267.714 33.13C267.332 33.3009 266.9 33.3864 266.419 33.3864Z" fill="#B6FFFB"/>
<path d="M315 0V13L328 13L315 0Z" fill="#B6FFFB" fill-opacity="0.1"/>
<rect x="315" y="13" width="13" height="33" fill="#B6FFFB" fill-opacity="0.1"/>
</svg>
