<svg width="320" height="46" viewBox="0 0 320 46" fill="none" xmlns="http://www.w3.org/2000/svg">
<path d="M13 46L13 33L1.1365e-06 33L13 46Z" fill="#B6FFFB" fill-opacity="0.1"/>
<rect x="13" y="33" width="13" height="33" transform="rotate(-180 13 33)" fill="#B6FFFB" fill-opacity="0.1"/>
<rect width="307" height="46" transform="translate(13)" fill="#B6FFFB" fill-opacity="0.1"/>
<path d="M78.5307 29.9694C78.6004 30.0391 78.6557 30.1218 78.6934 30.2129C78.7311 30.3039 78.7505 30.4015 78.7505 30.5001C78.7505 30.5986 78.7311 30.6962 78.6934 30.7872C78.6557 30.8783 78.6004 30.961 78.5307 31.0307C78.461 31.1004 78.3783 31.1556 78.2873 31.1933C78.1962 31.2311 78.0986 31.2505 78.0001 31.2505C77.9016 31.2505 77.804 31.2311 77.7129 31.1933C77.6219 31.1556 77.5392 31.1004 77.4695 31.0307L69.9695 23.5307C69.8997 23.461 69.8444 23.3783 69.8067 23.2873C69.7689 23.1962 69.7495 23.0986 69.7495 23.0001C69.7495 22.9015 69.7689 22.8039 69.8067 22.7128C69.8444 22.6218 69.8997 22.5391 69.9695 22.4694L77.4695 14.9694C77.6102 14.8287 77.8011 14.7496 78.0001 14.7496C78.1991 14.7496 78.39 14.8287 78.5307 14.9694C78.6715 15.1102 78.7505 15.301 78.7505 15.5001C78.7505 15.6991 78.6715 15.8899 78.5307 16.0307L71.5604 23.0001L78.5307 29.9694Z" fill="#B6FFFB"/>
<path d="M94.9926 29.5V15.6818H96.6659V21.8352H104.034V15.6818H105.707V29.5H104.034V23.3196H96.6659V29.5H94.9926ZM111.891 29.7429C111.234 29.7429 110.638 29.6192 110.103 29.3718C109.568 29.1199 109.143 28.7578 108.828 28.2855C108.513 27.8087 108.355 27.233 108.355 26.5582C108.355 25.9645 108.472 25.4832 108.706 25.1143C108.94 24.741 109.253 24.4486 109.644 24.2372C110.035 24.0258 110.467 23.8684 110.94 23.7649C111.416 23.657 111.895 23.5715 112.377 23.5085C113.006 23.4276 113.517 23.3668 113.908 23.3263C114.304 23.2814 114.592 23.2071 114.772 23.1037C114.956 23.0002 115.049 22.8203 115.049 22.5639V22.5099C115.049 21.8442 114.866 21.3269 114.502 20.9581C114.142 20.5893 113.596 20.4048 112.862 20.4048C112.102 20.4048 111.506 20.5713 111.074 20.9041C110.643 21.237 110.339 21.5923 110.164 21.9702L108.652 21.4304C108.922 20.8007 109.282 20.3104 109.732 19.9595C110.186 19.6042 110.681 19.3568 111.216 19.2173C111.756 19.0734 112.287 19.0014 112.809 19.0014C113.141 19.0014 113.524 19.0419 113.956 19.1229C114.392 19.1993 114.812 19.359 115.217 19.6019C115.627 19.8448 115.966 20.2114 116.236 20.7017C116.506 21.192 116.641 21.8487 116.641 22.6719V29.5H115.049V28.0966H114.968C114.86 28.3215 114.68 28.5621 114.428 28.8185C114.176 29.0749 113.841 29.2931 113.422 29.473C113.004 29.6529 112.494 29.7429 111.891 29.7429ZM112.134 28.3125C112.764 28.3125 113.294 28.1888 113.726 27.9414C114.162 27.694 114.491 27.3746 114.711 26.9833C114.936 26.592 115.049 26.1804 115.049 25.7486V24.2912C114.981 24.3722 114.833 24.4464 114.603 24.5138C114.378 24.5768 114.117 24.633 113.821 24.6825C113.528 24.7275 113.243 24.768 112.964 24.804C112.689 24.8355 112.467 24.8625 112.296 24.8849C111.882 24.9389 111.495 25.0266 111.135 25.1481C110.78 25.265 110.492 25.4427 110.272 25.6811C110.056 25.915 109.948 26.2344 109.948 26.6392C109.948 27.1925 110.152 27.6108 110.562 27.8942C110.976 28.1731 111.5 28.3125 112.134 28.3125ZM131.287 19.1364V20.6207H126.483V29.5H124.891V19.1364H131.287ZM131.822 29.5V28.0156H132.2C132.51 28.0156 132.769 27.9549 132.976 27.8335C133.183 27.7075 133.349 27.4893 133.475 27.179C133.605 26.8641 133.704 26.4278 133.772 25.87C133.844 25.3078 133.896 24.5926 133.927 23.7244L134.116 19.1364H141.025V29.5H139.433V20.6207H135.627L135.465 24.3182C135.429 25.1683 135.353 25.9173 135.236 26.565C135.124 27.2082 134.95 27.748 134.717 28.1843C134.487 28.6206 134.181 28.949 133.799 29.1694C133.417 29.3898 132.938 29.5 132.362 29.5H131.822ZM146.996 29.7429C146.34 29.7429 145.744 29.6192 145.208 29.3718C144.673 29.1199 144.248 28.7578 143.933 28.2855C143.618 27.8087 143.461 27.233 143.461 26.5582C143.461 25.9645 143.578 25.4832 143.812 25.1143C144.046 24.741 144.358 24.4486 144.75 24.2372C145.141 24.0258 145.573 23.8684 146.045 23.7649C146.522 23.657 147.001 23.5715 147.482 23.5085C148.112 23.4276 148.622 23.3668 149.014 23.3263C149.41 23.2814 149.697 23.2071 149.877 23.1037C150.062 23.0002 150.154 22.8203 150.154 22.5639V22.5099C150.154 21.8442 149.972 21.3269 149.608 20.9581C149.248 20.5893 148.701 20.4048 147.968 20.4048C147.208 20.4048 146.612 20.5713 146.18 20.9041C145.748 21.237 145.445 21.5923 145.269 21.9702L143.758 21.4304C144.028 20.8007 144.387 20.3104 144.837 19.9595C145.292 19.6042 145.786 19.3568 146.322 19.2173C146.861 19.0734 147.392 19.0014 147.914 19.0014C148.247 19.0014 148.629 19.0419 149.061 19.1229C149.497 19.1993 149.918 19.359 150.323 19.6019C150.732 19.8448 151.072 20.2114 151.342 20.7017C151.611 21.192 151.746 21.8487 151.746 22.6719V29.5H150.154V28.0966H150.073C149.965 28.3215 149.785 28.5621 149.533 28.8185C149.281 29.0749 148.946 29.2931 148.528 29.473C148.11 29.6529 147.599 29.7429 146.996 29.7429ZM147.239 28.3125C147.869 28.3125 148.4 28.1888 148.832 27.9414C149.268 27.694 149.596 27.3746 149.817 26.9833C150.042 26.592 150.154 26.1804 150.154 25.7486V24.2912C150.087 24.3722 149.938 24.4464 149.709 24.5138C149.484 24.5768 149.223 24.633 148.926 24.6825C148.634 24.7275 148.348 24.768 148.069 24.804C147.795 24.8355 147.572 24.8625 147.401 24.8849C146.987 24.9389 146.601 25.0266 146.241 25.1481C145.885 25.265 145.597 25.4427 145.377 25.6811C145.161 25.915 145.053 26.2344 145.053 26.6392C145.053 27.1925 145.258 27.6108 145.667 27.8942C146.081 28.1731 146.605 28.3125 147.239 28.3125ZM154.653 29.5V19.1364H158.89C160.005 19.1364 160.892 19.3883 161.548 19.892C162.205 20.3958 162.533 21.0616 162.533 21.8892C162.533 22.5189 162.347 23.007 161.973 23.3533C161.6 23.6952 161.121 23.9268 160.536 24.0483C160.919 24.1023 161.29 24.2372 161.65 24.4531C162.014 24.669 162.315 24.9659 162.554 25.3438C162.792 25.7171 162.911 26.1759 162.911 26.7202C162.911 27.2509 162.776 27.7255 162.506 28.1438C162.237 28.5621 161.85 28.8928 161.346 29.1357C160.842 29.3786 160.239 29.5 159.538 29.5H154.653ZM156.164 28.0426H159.538C160.086 28.0426 160.516 27.9122 160.826 27.6513C161.137 27.3904 161.292 27.035 161.292 26.5852C161.292 26.05 161.137 25.6294 160.826 25.3235C160.516 25.0131 160.086 24.858 159.538 24.858H156.164V28.0426ZM156.164 23.4815H158.89C159.317 23.4815 159.684 23.4231 159.99 23.3061C160.296 23.1847 160.529 23.0137 160.691 22.7933C160.858 22.5684 160.941 22.303 160.941 21.9972C160.941 21.5608 160.759 21.219 160.395 20.9716C160.03 20.7197 159.529 20.5938 158.89 20.5938H156.164V23.4815ZM172.258 23.5895V25.0739H166.536V23.5895H172.258ZM166.914 19.1364V29.5H165.322V19.1364H166.914ZM173.472 19.1364V29.5H171.88V19.1364H173.472ZM177.757 22.8878H180.725C181.94 22.8878 182.869 23.1959 183.512 23.8121C184.155 24.4284 184.477 25.2088 184.477 26.1534C184.477 26.7741 184.333 27.3387 184.045 27.8469C183.757 28.3507 183.334 28.7533 182.777 29.0547C182.219 29.3516 181.535 29.5 180.725 29.5H176.38V19.1364H177.973V28.0156H180.725C181.355 28.0156 181.872 27.8492 182.277 27.5163C182.682 27.1835 182.884 26.7562 182.884 26.2344C182.884 25.6856 182.682 25.238 182.277 24.8917C181.872 24.5453 181.355 24.3722 180.725 24.3722H177.757V22.8878ZM186.123 29.5V19.1364H187.715V29.5H186.123ZM192.223 27.152L197.215 19.1364H199.051V29.5H197.458V21.4844L192.492 29.5H190.63V19.1364H192.223V27.152ZM196.163 15.6818H197.647C197.647 16.4105 197.395 17.0065 196.892 17.4698C196.388 17.9331 195.704 18.1648 194.84 18.1648C193.99 18.1648 193.313 17.9331 192.81 17.4698C192.31 17.0065 192.061 16.4105 192.061 15.6818H193.545C193.545 16.0327 193.642 16.3408 193.835 16.6062C194.033 16.8716 194.368 17.0043 194.84 17.0043C195.313 17.0043 195.65 16.8716 195.853 16.6062C196.059 16.3408 196.163 16.0327 196.163 15.6818ZM210.738 20.4858C210.379 20.4903 210.017 20.5825 209.652 20.7624C209.292 20.9424 208.991 21.1808 208.748 21.4776C208.51 21.77 208.39 22.0961 208.39 22.456H206.825C206.825 22.0062 206.933 21.5743 207.149 21.1605C207.365 20.7467 207.655 20.3778 208.019 20.054C208.388 19.7301 208.807 19.4737 209.274 19.2848C209.747 19.0959 210.235 19.0014 210.738 19.0014C211.683 19.0014 212.484 19.2398 213.14 19.7166C213.802 20.1934 214.303 20.8232 214.645 21.6058C214.991 22.3885 215.165 23.2386 215.165 24.1562V24.5341C215.165 25.4472 214.991 26.2973 214.645 27.0845C214.303 27.8672 213.802 28.4969 213.14 28.9737C212.484 29.4505 211.683 29.6889 210.738 29.6889C209.983 29.6889 209.31 29.5225 208.721 29.1896C208.132 28.8523 207.669 28.4025 207.331 27.8402C206.994 27.2779 206.825 26.6527 206.825 25.9645H208.39C208.39 26.3558 208.501 26.7224 208.721 27.0643C208.946 27.4016 209.236 27.676 209.591 27.8874C209.951 28.0943 210.334 28.2 210.738 28.2045C211.341 28.2 211.854 28.0111 212.277 27.6378C212.7 27.2644 213.021 26.7966 213.242 26.2344C213.462 25.6721 213.572 25.1054 213.572 24.5341V24.1562C213.572 23.5715 213.462 23.0002 213.242 22.4425C213.026 21.8802 212.706 21.4147 212.284 21.0458C211.865 20.677 211.35 20.4903 210.738 20.4858ZM214.22 23.5355V25.0199H209.686V23.5355H214.22ZM217.59 29.5V19.1364H219.183V23.6435H220.235L223.96 19.1364H226.011L221.827 24.1293L226.065 29.5H224.013L220.613 25.1278H219.183V29.5H217.59ZM227.795 33.3864V19.1364H229.334V20.7827H229.523C229.64 20.6027 229.801 20.3733 230.008 20.0945C230.22 19.8111 230.521 19.5592 230.912 19.3388C231.308 19.1139 231.844 19.0014 232.518 19.0014C233.391 19.0014 234.16 19.2196 234.826 19.6559C235.492 20.0922 236.011 20.7107 236.384 21.5114C236.758 22.312 236.944 23.2566 236.944 24.3452C236.944 25.4427 236.758 26.3941 236.384 27.1992C236.011 27.9999 235.494 28.6206 234.833 29.0614C234.171 29.4978 233.409 29.7159 232.545 29.7159C231.88 29.7159 231.347 29.6057 230.946 29.3853C230.546 29.1604 230.238 28.9062 230.022 28.6229C229.806 28.335 229.64 28.0966 229.523 27.9077H229.388V33.3864H227.795ZM229.361 24.3182C229.361 25.1009 229.475 25.7913 229.705 26.3896C229.934 26.9833 230.269 27.4489 230.71 27.7862C231.151 28.1191 231.691 28.2855 232.329 28.2855C232.995 28.2855 233.551 28.1101 233.996 27.7592C234.446 27.4039 234.783 26.9271 235.008 26.3288C235.237 25.7261 235.352 25.0559 235.352 24.3182C235.352 23.5895 235.24 22.9328 235.015 22.348C234.794 21.7588 234.459 21.2932 234.009 20.9513C233.564 20.605 233.004 20.4318 232.329 20.4318C231.682 20.4318 231.137 20.596 230.697 20.9244C230.256 21.2482 229.923 21.7025 229.698 22.2873C229.473 22.8675 229.361 23.5445 229.361 24.3182ZM242.423 29.7429C241.766 29.7429 241.17 29.6192 240.635 29.3718C240.1 29.1199 239.675 28.7578 239.36 28.2855C239.045 27.8087 238.888 27.233 238.888 26.5582C238.888 25.9645 239.005 25.4832 239.238 25.1143C239.472 24.741 239.785 24.4486 240.176 24.2372C240.568 24.0258 240.999 23.8684 241.472 23.7649C241.949 23.657 242.428 23.5715 242.909 23.5085C243.539 23.4276 244.049 23.3668 244.441 23.3263C244.836 23.2814 245.124 23.2071 245.304 23.1037C245.489 23.0002 245.581 22.8203 245.581 22.5639V22.5099C245.581 21.8442 245.399 21.3269 245.034 20.9581C244.674 20.5893 244.128 20.4048 243.395 20.4048C242.635 20.4048 242.039 20.5713 241.607 20.9041C241.175 21.237 240.871 21.5923 240.696 21.9702L239.184 21.4304C239.454 20.8007 239.814 20.3104 240.264 19.9595C240.718 19.6042 241.213 19.3568 241.748 19.2173C242.288 19.0734 242.819 19.0014 243.341 19.0014C243.674 19.0014 244.056 19.0419 244.488 19.1229C244.924 19.1993 245.345 19.359 245.749 19.6019C246.159 19.8448 246.498 20.2114 246.768 20.7017C247.038 21.192 247.173 21.8487 247.173 22.6719V29.5H245.581V28.0966H245.5C245.392 28.3215 245.212 28.5621 244.96 28.8185C244.708 29.0749 244.373 29.2931 243.955 29.473C243.536 29.6529 243.026 29.7429 242.423 29.7429ZM242.666 28.3125C243.296 28.3125 243.827 28.1888 244.258 27.9414C244.695 27.694 245.023 27.3746 245.243 26.9833C245.468 26.592 245.581 26.1804 245.581 25.7486V24.2912C245.513 24.3722 245.365 24.4464 245.135 24.5138C244.911 24.5768 244.65 24.633 244.353 24.6825C244.06 24.7275 243.775 24.768 243.496 24.804C243.222 24.8355 242.999 24.8625 242.828 24.8849C242.414 24.9389 242.027 25.0266 241.667 25.1481C241.312 25.265 241.024 25.4427 240.804 25.6811C240.588 25.915 240.48 26.2344 240.48 26.6392C240.48 27.1925 240.685 27.6108 241.094 27.8942C241.508 28.1731 242.032 28.3125 242.666 28.3125ZM257.016 23.5895V25.0739H251.294V23.5895H257.016ZM251.672 19.1364V29.5H250.079V19.1364H251.672ZM258.23 19.1364V29.5H256.638V19.1364H258.23Z" fill="#B6FFFB"/>
</svg>
