<svg width="328" height="46" viewBox="0 0 328 46" fill="none" xmlns="http://www.w3.org/2000/svg">
<path d="M13 46L13 33L1.1365e-06 33L13 46Z" fill="#B6FFFB"/>
<rect x="13" y="33" width="13" height="33" transform="rotate(-180 13 33)" fill="#B6FFFB"/>
<rect width="302" height="46" transform="translate(13)" fill="#B6FFFB"/>
<path d="M121.336 32.8466V28.0156H122.227C122.533 27.7367 122.821 27.3432 123.091 26.8349C123.365 26.3221 123.597 25.6384 123.786 24.7837C123.979 23.9246 124.107 22.8338 124.17 21.5114L124.467 15.6818H132.672V28.0156H134.264V32.8196H132.672V29.5H122.929V32.8466H121.336ZM124.224 28.0156H131.079V17.1662H125.978L125.763 21.5114C125.709 22.5189 125.614 23.4321 125.479 24.2507C125.344 25.0649 125.171 25.7868 124.96 26.4165C124.748 27.0418 124.503 27.5748 124.224 28.0156ZM139.626 29.7429C138.97 29.7429 138.374 29.6192 137.838 29.3718C137.303 29.1199 136.878 28.7578 136.563 28.2855C136.248 27.8087 136.091 27.233 136.091 26.5582C136.091 25.9645 136.208 25.4832 136.442 25.1143C136.675 24.741 136.988 24.4486 137.379 24.2372C137.771 24.0258 138.203 23.8684 138.675 23.7649C139.152 23.657 139.631 23.5715 140.112 23.5085C140.742 23.4276 141.252 23.3668 141.644 23.3263C142.039 23.2814 142.327 23.2071 142.507 23.1037C142.692 23.0002 142.784 22.8203 142.784 22.5639V22.5099C142.784 21.8442 142.602 21.3269 142.237 20.9581C141.878 20.5893 141.331 20.4048 140.598 20.4048C139.838 20.4048 139.242 20.5713 138.81 20.9041C138.378 21.237 138.074 21.5923 137.899 21.9702L136.388 21.4304C136.657 20.8007 137.017 20.3104 137.467 19.9595C137.921 19.6042 138.416 19.3568 138.952 19.2173C139.491 19.0734 140.022 19.0014 140.544 19.0014C140.877 19.0014 141.259 19.0419 141.691 19.1229C142.127 19.1993 142.548 19.359 142.953 19.6019C143.362 19.8448 143.702 20.2114 143.971 20.7017C144.241 21.192 144.376 21.8487 144.376 22.6719V29.5H142.784V28.0966H142.703C142.595 28.3215 142.415 28.5621 142.163 28.8185C141.911 29.0749 141.576 29.2931 141.158 29.473C140.74 29.6529 140.229 29.7429 139.626 29.7429ZM139.869 28.3125C140.499 28.3125 141.03 28.1888 141.461 27.9414C141.898 27.694 142.226 27.3746 142.447 26.9833C142.671 26.592 142.784 26.1804 142.784 25.7486V24.2912C142.716 24.3722 142.568 24.4464 142.339 24.5138C142.114 24.5768 141.853 24.633 141.556 24.6825C141.264 24.7275 140.978 24.768 140.699 24.804C140.425 24.8355 140.202 24.8625 140.031 24.8849C139.617 24.9389 139.23 25.0266 138.871 25.1481C138.515 25.265 138.227 25.4427 138.007 25.6811C137.791 25.915 137.683 26.2344 137.683 26.6392C137.683 27.1925 137.888 27.6108 138.297 27.8942C138.711 28.1731 139.235 28.3125 139.869 28.3125ZM146.365 29.5V28.0156H146.743C147.053 28.0156 147.312 27.9549 147.519 27.8335C147.726 27.7075 147.892 27.4893 148.018 27.179C148.148 26.8641 148.247 26.4278 148.315 25.87C148.387 25.3078 148.439 24.5926 148.47 23.7244L148.659 19.1364H155.568V29.5H153.976V20.6207H150.17L150.008 24.3182C149.972 25.1683 149.896 25.9173 149.779 26.565C149.667 27.2082 149.493 27.748 149.259 28.1843C149.03 28.6206 148.724 28.949 148.342 29.1694C147.96 29.3898 147.48 29.5 146.905 29.5H146.365ZM162.835 29.7159C161.836 29.7159 160.975 29.4955 160.251 29.0547C159.531 28.6094 158.975 27.9886 158.584 27.1925C158.197 26.3918 158.004 25.4607 158.004 24.3991C158.004 23.3376 158.197 22.402 158.584 21.5923C158.975 20.7782 159.52 20.1439 160.217 19.6896C160.919 19.2308 161.737 19.0014 162.673 19.0014C163.213 19.0014 163.746 19.0914 164.272 19.2713C164.798 19.4512 165.277 19.7436 165.709 20.1484C166.141 20.5488 166.485 21.0795 166.741 21.7408C166.998 22.402 167.126 23.2161 167.126 24.1832V24.858H159.137V23.4815H165.507C165.507 22.8968 165.39 22.375 165.156 21.9162C164.926 21.4574 164.598 21.0953 164.171 20.8299C163.748 20.5645 163.249 20.4318 162.673 20.4318C162.039 20.4318 161.49 20.5893 161.027 20.9041C160.568 21.2145 160.215 21.6193 159.967 22.1186C159.72 22.6179 159.596 23.1532 159.596 23.7244V24.642C159.596 25.4247 159.731 26.0882 160.001 26.6325C160.275 27.1722 160.655 27.5838 161.141 27.8672C161.627 28.1461 162.192 28.2855 162.835 28.2855C163.253 28.2855 163.631 28.227 163.968 28.1101C164.31 27.9886 164.605 27.8087 164.852 27.5703C165.1 27.3274 165.291 27.026 165.426 26.6662L166.964 27.098C166.802 27.6198 166.53 28.0786 166.148 28.4744C165.765 28.8658 165.293 29.1716 164.731 29.392C164.168 29.608 163.536 29.7159 162.835 29.7159ZM173.893 29.7159C172.895 29.7159 172.033 29.4955 171.309 29.0547C170.59 28.6094 170.034 27.9886 169.643 27.1925C169.256 26.3918 169.062 25.4607 169.062 24.3991C169.062 23.3376 169.256 22.402 169.643 21.5923C170.034 20.7782 170.578 20.1439 171.275 19.6896C171.977 19.2308 172.796 19.0014 173.731 19.0014C174.271 19.0014 174.804 19.0914 175.331 19.2713C175.857 19.4512 176.336 19.7436 176.768 20.1484C177.199 20.5488 177.544 21.0795 177.8 21.7408C178.056 22.402 178.185 23.2161 178.185 24.1832V24.858H170.196V23.4815H176.565C176.565 22.8968 176.448 22.375 176.214 21.9162C175.985 21.4574 175.657 21.0953 175.229 20.8299C174.806 20.5645 174.307 20.4318 173.731 20.4318C173.097 20.4318 172.548 20.5893 172.085 20.9041C171.626 21.2145 171.273 21.6193 171.026 22.1186C170.778 22.6179 170.655 23.1532 170.655 23.7244V24.642C170.655 25.4247 170.79 26.0882 171.06 26.6325C171.334 27.1722 171.714 27.5838 172.2 27.8672C172.686 28.1461 173.25 28.2855 173.893 28.2855C174.312 28.2855 174.69 28.227 175.027 28.1101C175.369 27.9886 175.663 27.8087 175.911 27.5703C176.158 27.3274 176.349 27.026 176.484 26.6662L178.023 27.098C177.861 27.6198 177.589 28.0786 177.206 28.4744C176.824 28.8658 176.352 29.1716 175.789 29.392C175.227 29.608 174.595 29.7159 173.893 29.7159Z" fill="#232323"/>
<path d="M202.531 23.5306L195.031 31.0306C194.961 31.1003 194.878 31.1556 194.787 31.1933C194.696 31.231 194.599 31.2504 194.5 31.2504C194.402 31.2504 194.304 31.231 194.213 31.1933C194.122 31.1556 194.039 31.1003 193.969 31.0306C193.9 30.9609 193.844 30.8782 193.807 30.7872C193.769 30.6961 193.75 30.5985 193.75 30.5C193.75 30.4015 193.769 30.3039 193.807 30.2128C193.844 30.1218 193.9 30.0391 193.969 29.9694L200.94 23L193.969 16.0306C193.829 15.8899 193.75 15.699 193.75 15.5C193.75 15.301 193.829 15.1101 193.969 14.9694C194.11 14.8286 194.301 14.7496 194.5 14.7496C194.699 14.7496 194.89 14.8286 195.031 14.9694L202.531 22.4694C202.6 22.539 202.656 22.6217 202.693 22.7128C202.731 22.8038 202.751 22.9014 202.751 23C202.751 23.0986 202.731 23.1962 202.693 23.2872C202.656 23.3783 202.6 23.461 202.531 23.5306Z" fill="#232323"/>
<path d="M315 0V13L328 13L315 0Z" fill="#B6FFFB"/>
<rect x="315" y="13" width="13" height="33" fill="#B6FFFB"/>
</svg>
