<svg width="160" height="46" viewBox="0 0 160 46" fill="none" xmlns="http://www.w3.org/2000/svg">
<rect width="147" height="46" fill="#B6FFFB" fill-opacity="0.1"/>
<path d="M30.8364 32.8466V28.0156H31.727C32.0329 27.7367 32.3208 27.3432 32.5906 26.8349C32.865 26.3221 33.0967 25.6384 33.2856 24.7837C33.479 23.9246 33.6072 22.8338 33.6702 21.5114L33.9671 15.6818H42.1716V28.0156H43.7639V32.8196H42.1716V29.5H32.4287V32.8466H30.8364ZM33.7242 28.0156H40.5793V17.1662H35.4784L35.2625 21.5114C35.2085 22.5189 35.1141 23.4321 34.9791 24.2507C34.8442 25.0649 34.671 25.7868 34.4596 26.4165C34.2482 27.0418 34.003 27.5748 33.7242 28.0156ZM49.1262 29.7429C48.4695 29.7429 47.8735 29.6192 47.3382 29.3718C46.803 29.1199 46.3779 28.7578 46.063 28.2855C45.7482 27.8087 45.5907 27.233 45.5907 26.5582C45.5907 25.9645 45.7077 25.4832 45.9416 25.1143C46.1755 24.741 46.4881 24.4486 46.8794 24.2372C47.2708 24.0258 47.7026 23.8684 48.1749 23.7649C48.6517 23.657 49.1307 23.5715 49.612 23.5085C50.2418 23.4276 50.7523 23.3668 51.1436 23.3263C51.5395 23.2814 51.8274 23.2071 52.0073 23.1037C52.1917 23.0002 52.2839 22.8203 52.2839 22.5639V22.5099C52.2839 21.8442 52.1017 21.3269 51.7374 20.9581C51.3775 20.5893 50.831 20.4048 50.0978 20.4048C49.3377 20.4048 48.7417 20.5713 48.3098 20.9041C47.878 21.237 47.5744 21.5923 47.399 21.9702L45.8876 21.4304C46.1575 20.8007 46.5173 20.3104 46.9672 19.9595C47.4215 19.6042 47.9163 19.3568 48.4515 19.2173C48.9913 19.0734 49.5221 19.0014 50.0439 19.0014C50.3767 19.0014 50.7591 19.0419 51.1909 19.1229C51.6272 19.1993 52.0478 19.359 52.4526 19.6019C52.8619 19.8448 53.2015 20.2114 53.4714 20.7017C53.7413 21.192 53.8762 21.8487 53.8762 22.6719V29.5H52.2839V28.0966H52.2029C52.095 28.3215 51.9151 28.5621 51.6632 28.8185C51.4113 29.0749 51.0762 29.2931 50.6578 29.473C50.2395 29.6529 49.729 29.7429 49.1262 29.7429ZM49.3691 28.3125C49.9989 28.3125 50.5297 28.1888 50.9615 27.9414C51.3978 27.694 51.7261 27.3746 51.9466 26.9833C52.1715 26.592 52.2839 26.1804 52.2839 25.7486V24.2912C52.2164 24.3722 52.068 24.4464 51.8386 24.5138C51.6137 24.5768 51.3528 24.633 51.0559 24.6825C50.7636 24.7275 50.4779 24.768 50.199 24.804C49.9247 24.8355 49.702 24.8625 49.5311 24.8849C49.1172 24.9389 48.7304 25.0266 48.3706 25.1481C48.0152 25.265 47.7273 25.4427 47.5069 25.6811C47.291 25.915 47.1831 26.2344 47.1831 26.6392C47.1831 27.1925 47.3877 27.6108 47.7971 27.8942C48.2109 28.1731 48.7349 28.3125 49.3691 28.3125ZM55.865 29.5V28.0156H56.2428C56.5532 28.0156 56.8118 27.9549 57.0187 27.8335C57.2256 27.7075 57.3921 27.4893 57.518 27.179C57.6485 26.8641 57.7474 26.4278 57.8149 25.87C57.8869 25.3078 57.9386 24.5926 57.9701 23.7244L58.159 19.1364H65.0681V29.5H63.4758V20.6207H59.6704L59.5084 24.3182C59.4724 25.1683 59.396 25.9173 59.279 26.565C59.1666 27.2082 58.9934 27.748 58.7595 28.1843C58.5301 28.6206 58.2242 28.949 57.8419 29.1694C57.4595 29.3898 56.9805 29.5 56.4047 29.5H55.865ZM72.3348 29.7159C71.3362 29.7159 70.4748 29.4955 69.7506 29.0547C69.0309 28.6094 68.4754 27.9886 68.0841 27.1925C67.6972 26.3918 67.5038 25.4607 67.5038 24.3991C67.5038 23.3376 67.6972 22.402 68.0841 21.5923C68.4754 20.7782 69.0197 20.1439 69.7169 19.6896C70.4186 19.2308 71.2372 19.0014 72.1729 19.0014C72.7126 19.0014 73.2457 19.0914 73.7719 19.2713C74.2982 19.4512 74.7773 19.7436 75.2091 20.1484C75.6409 20.5488 75.985 21.0795 76.2414 21.7408C76.4978 22.402 76.626 23.2161 76.626 24.1832V24.858H68.6373V23.4815H75.0067C75.0067 22.8968 74.8897 22.375 74.6558 21.9162C74.4264 21.4574 74.098 21.0953 73.6707 20.8299C73.2479 20.5645 72.7486 20.4318 72.1729 20.4318C71.5386 20.4318 70.9898 20.5893 70.5265 20.9041C70.0677 21.2145 69.7146 21.6193 69.4672 22.1186C69.2198 22.6179 69.0961 23.1532 69.0961 23.7244V24.642C69.0961 25.4247 69.2311 26.0882 69.501 26.6325C69.7754 27.1722 70.1555 27.5838 70.6412 27.8672C71.127 28.1461 71.6916 28.2855 72.3348 28.2855C72.7531 28.2855 73.1309 28.227 73.4683 28.1101C73.8102 27.9886 74.1048 27.8087 74.3522 27.5703C74.5996 27.3274 74.7907 27.026 74.9257 26.6662L76.464 27.098C76.3021 27.6198 76.03 28.0786 75.6476 28.4744C75.2653 28.8658 74.793 29.1716 74.2307 29.392C73.6685 29.608 73.0365 29.7159 72.3348 29.7159ZM83.3934 29.7159C82.3948 29.7159 81.5334 29.4955 80.8092 29.0547C80.0895 28.6094 79.534 27.9886 79.1427 27.1925C78.7558 26.3918 78.5624 25.4607 78.5624 24.3991C78.5624 23.3376 78.7558 22.402 79.1427 21.5923C79.534 20.7782 80.0783 20.1439 80.7755 19.6896C81.4772 19.2308 82.2958 19.0014 83.2314 19.0014C83.7712 19.0014 84.3042 19.0914 84.8305 19.2713C85.3568 19.4512 85.8358 19.7436 86.2677 20.1484C86.6995 20.5488 87.0436 21.0795 87.3 21.7408C87.5564 22.402 87.6846 23.2161 87.6846 24.1832V24.858H79.6959V23.4815H86.0653C86.0653 22.8968 85.9483 22.375 85.7144 21.9162C85.485 21.4574 85.1566 21.0953 84.7293 20.8299C84.3065 20.5645 83.8072 20.4318 83.2314 20.4318C82.5972 20.4318 82.0484 20.5893 81.5851 20.9041C81.1263 21.2145 80.7732 21.6193 80.5258 22.1186C80.2784 22.6179 80.1547 23.1532 80.1547 23.7244V24.642C80.1547 25.4247 80.2897 26.0882 80.5596 26.6325C80.834 27.1722 81.214 27.5838 81.6998 27.8672C82.1856 28.1461 82.7501 28.2855 83.3934 28.2855C83.8117 28.2855 84.1895 28.227 84.5269 28.1101C84.8688 27.9886 85.1634 27.8087 85.4108 27.5703C85.6582 27.3274 85.8493 27.026 85.9843 26.6662L87.5226 27.098C87.3607 27.6198 87.0886 28.0786 86.7062 28.4744C86.3239 28.8658 85.8516 29.1716 85.2893 29.392C84.7271 29.608 84.0951 29.7159 83.3934 29.7159Z" fill="#B6FFFB"/>
<path d="M112.031 23.5306L104.531 31.0306C104.461 31.1003 104.378 31.1556 104.287 31.1933C104.196 31.231 104.098 31.2504 104 31.2504C103.901 31.2504 103.804 31.231 103.713 31.1933C103.622 31.1556 103.539 31.1003 103.469 31.0306C103.4 30.9609 103.344 30.8782 103.307 30.7872C103.269 30.6961 103.25 30.5985 103.25 30.5C103.25 30.4015 103.269 30.3039 103.307 30.2128C103.344 30.1218 103.4 30.0391 103.469 29.9694L110.44 23L103.469 16.0306C103.329 15.8899 103.25 15.699 103.25 15.5C103.25 15.301 103.329 15.1101 103.469 14.9694C103.61 14.8286 103.801 14.7496 104 14.7496C104.199 14.7496 104.39 14.8286 104.531 14.9694L112.031 22.4694C112.1 22.539 112.156 22.6217 112.193 22.7128C112.231 22.8038 112.251 22.9014 112.251 23C112.251 23.0986 112.231 23.1962 112.193 23.2872C112.156 23.3783 112.1 23.461 112.031 23.5306Z" fill="#B6FFFB"/>
<path d="M147 0V13L160 13L147 0Z" fill="#B6FFFB" fill-opacity="0.1"/>
<rect x="147" y="13" width="13" height="33" fill="#B6FFFB" fill-opacity="0.1"/>
</svg>
