<svg width="328" height="46" viewBox="0 0 328 46" fill="none" xmlns="http://www.w3.org/2000/svg">
<path d="M13 46L13 33L1.1365e-06 33L13 46Z" fill="#B6FFFB"/>
<rect x="13" y="33" width="13" height="33" transform="rotate(-180 13 33)" fill="#B6FFFB"/>
<rect width="302" height="46" transform="translate(13)" fill="#B6FFFB"/>
<path d="M58.4731 29.5V15.6818H60.1464V21.8352H67.5143V15.6818H69.1876V29.5H67.5143V23.3196H60.1464V29.5H58.4731ZM75.3714 29.7429C74.7146 29.7429 74.1186 29.6192 73.5834 29.3718C73.0481 29.1199 72.623 28.7578 72.3081 28.2855C71.9933 27.8087 71.8358 27.233 71.8358 26.5582C71.8358 25.9645 71.9528 25.4832 72.1867 25.1143C72.4206 24.741 72.7332 24.4486 73.1246 24.2372C73.5159 24.0258 73.9477 23.8684 74.42 23.7649C74.8968 23.657 75.3759 23.5715 75.8572 23.5085C76.4869 23.4276 76.9974 23.3668 77.3888 23.3263C77.7846 23.2814 78.0725 23.2071 78.2524 23.1037C78.4368 23.0002 78.529 22.8203 78.529 22.5639V22.5099C78.529 21.8442 78.3469 21.3269 77.9825 20.9581C77.6227 20.5893 77.0761 20.4048 76.343 20.4048C75.5828 20.4048 74.9868 20.5713 74.555 20.9041C74.1231 21.237 73.8195 21.5923 73.6441 21.9702L72.1327 21.4304C72.4026 20.8007 72.7625 20.3104 73.2123 19.9595C73.6666 19.6042 74.1614 19.3568 74.6966 19.2173C75.2364 19.0734 75.7672 19.0014 76.289 19.0014C76.6218 19.0014 77.0042 19.0419 77.436 19.1229C77.8723 19.1993 78.2929 19.359 78.6977 19.6019C79.107 19.8448 79.4466 20.2114 79.7165 20.7017C79.9864 21.192 80.1214 21.8487 80.1214 22.6719V29.5H78.529V28.0966H78.4481C78.3401 28.3215 78.1602 28.5621 77.9083 28.8185C77.6564 29.0749 77.3213 29.2931 76.903 29.473C76.4846 29.6529 75.9741 29.7429 75.3714 29.7429ZM75.6143 28.3125C76.244 28.3125 76.7748 28.1888 77.2066 27.9414C77.6429 27.694 77.9713 27.3746 78.1917 26.9833C78.4166 26.592 78.529 26.1804 78.529 25.7486V24.2912C78.4616 24.3722 78.3131 24.4464 78.0837 24.5138C77.8588 24.5768 77.5979 24.633 77.301 24.6825C77.0087 24.7275 76.723 24.768 76.4442 24.804C76.1698 24.8355 75.9471 24.8625 75.7762 24.8849C75.3624 24.9389 74.9755 25.0266 74.6157 25.1481C74.2603 25.265 73.9724 25.4427 73.752 25.6811C73.5361 25.915 73.4282 26.2344 73.4282 26.6392C73.4282 27.1925 73.6328 27.6108 74.0422 27.8942C74.456 28.1731 74.98 28.3125 75.6143 28.3125ZM91.0163 19.1364V29.5H89.424V19.1364H91.0163ZM90.3956 24.0753V25.5597C90.0357 25.6946 89.6781 25.8138 89.3228 25.9173C88.9674 26.0162 88.5941 26.0949 88.2028 26.1534C87.8114 26.2074 87.3819 26.2344 86.9141 26.2344C85.7401 26.2344 84.7977 25.9173 84.087 25.283C83.3808 24.6488 83.0277 23.6974 83.0277 22.429V19.1094H84.62V22.429C84.62 22.9598 84.7212 23.3961 84.9237 23.7379C85.1261 24.0798 85.4004 24.3339 85.7468 24.5004C86.0932 24.6668 86.4822 24.75 86.9141 24.75C87.5888 24.75 88.1983 24.6893 88.7425 24.5678C89.2913 24.4419 89.8423 24.2777 90.3956 24.0753ZM96.9876 29.7429C96.3308 29.7429 95.7348 29.6192 95.1996 29.3718C94.6643 29.1199 94.2392 28.7578 93.9244 28.2855C93.6095 27.8087 93.4521 27.233 93.4521 26.5582C93.4521 25.9645 93.569 25.4832 93.8029 25.1143C94.0368 24.741 94.3494 24.4486 94.7408 24.2372C95.1321 24.0258 95.5639 23.8684 96.0362 23.7649C96.513 23.657 96.9921 23.5715 97.4734 23.5085C98.1031 23.4276 98.6136 23.3668 99.005 23.3263C99.4008 23.2814 99.6887 23.2071 99.8686 23.1037C100.053 23.0002 100.145 22.8203 100.145 22.5639V22.5099C100.145 21.8442 99.9631 21.3269 99.5987 20.9581C99.2389 20.5893 98.6924 20.4048 97.9592 20.4048C97.199 20.4048 96.603 20.5713 96.1712 20.9041C95.7393 21.237 95.4357 21.5923 95.2603 21.9702L93.7489 21.4304C94.0188 20.8007 94.3787 20.3104 94.8285 19.9595C95.2828 19.6042 95.7776 19.3568 96.3129 19.2173C96.8526 19.0734 97.3834 19.0014 97.9052 19.0014C98.238 19.0014 98.6204 19.0419 99.0522 19.1229C99.4885 19.1993 99.9091 19.359 100.314 19.6019C100.723 19.8448 101.063 20.2114 101.333 20.7017C101.603 21.192 101.738 21.8487 101.738 22.6719V29.5H100.145V28.0966H100.064C99.9563 28.3215 99.7764 28.5621 99.5245 28.8185C99.2726 29.0749 98.9375 29.2931 98.5192 29.473C98.1009 29.6529 97.5903 29.7429 96.9876 29.7429ZM97.2305 28.3125C97.8602 28.3125 98.391 28.1888 98.8228 27.9414C99.2591 27.694 99.5875 27.3746 99.8079 26.9833C100.033 26.592 100.145 26.1804 100.145 25.7486V24.2912C100.078 24.3722 99.9293 24.4464 99.6999 24.5138C99.475 24.5768 99.2141 24.633 98.9173 24.6825C98.6249 24.7275 98.3393 24.768 98.0604 24.804C97.786 24.8355 97.5633 24.8625 97.3924 24.8849C96.9786 24.9389 96.5917 25.0266 96.2319 25.1481C95.8765 25.265 95.5887 25.4427 95.3683 25.6811C95.1523 25.915 95.0444 26.2344 95.0444 26.6392C95.0444 27.1925 95.2491 27.6108 95.6584 27.8942C96.0722 28.1731 96.5962 28.3125 97.2305 28.3125ZM103.234 20.6207V19.1364H111.654V20.6207H108.254V29.5H106.661V20.6207H103.234ZM115.353 22.8878H118.322C119.537 22.8878 120.465 23.1959 121.109 23.8121C121.752 24.4284 122.074 25.2088 122.074 26.1534C122.074 26.7741 121.93 27.3387 121.642 27.8469C121.354 28.3507 120.931 28.7533 120.373 29.0547C119.815 29.3516 119.132 29.5 118.322 29.5H113.977V19.1364H115.569V28.0156H118.322C118.952 28.0156 119.469 27.8492 119.874 27.5163C120.279 27.1835 120.481 26.7562 120.481 26.2344C120.481 25.6856 120.279 25.238 119.874 24.8917C119.469 24.5453 118.952 24.3722 118.322 24.3722H115.353V22.8878ZM130.867 33.3864C130.597 33.3864 130.356 33.3639 130.145 33.3189C129.933 33.2784 129.787 33.2379 129.706 33.1974L130.111 31.794C130.498 31.893 130.84 31.929 131.137 31.902C131.434 31.875 131.697 31.7423 131.926 31.5039C132.16 31.27 132.374 30.8899 132.567 30.3636L132.864 29.554L129.032 19.1364H130.759L133.62 27.3949H133.728L136.588 19.1364H138.316L133.916 31.0114C133.719 31.5466 133.473 31.9897 133.181 32.3406C132.889 32.6959 132.549 32.959 132.162 33.13C131.78 33.3009 131.348 33.3864 130.867 33.3864ZM140.417 29.5V19.1364H148.568V29.5H146.976V20.6207H142.01V29.5H140.417ZM151.476 33.3864V19.1364H153.014V20.7827H153.203C153.32 20.6027 153.482 20.3733 153.689 20.0945C153.9 19.8111 154.202 19.5592 154.593 19.3388C154.989 19.1139 155.524 19.0014 156.199 19.0014C157.072 19.0014 157.841 19.2196 158.506 19.6559C159.172 20.0922 159.692 20.7107 160.065 21.5114C160.438 22.312 160.625 23.2566 160.625 24.3452C160.625 25.4427 160.438 26.3941 160.065 27.1992C159.692 27.9999 159.174 28.6206 158.513 29.0614C157.852 29.4978 157.09 29.7159 156.226 29.7159C155.56 29.7159 155.027 29.6057 154.627 29.3853C154.227 29.1604 153.918 28.9062 153.703 28.6229C153.487 28.335 153.32 28.0966 153.203 27.9077H153.068V33.3864H151.476ZM153.041 24.3182C153.041 25.1009 153.156 25.7913 153.385 26.3896C153.615 26.9833 153.95 27.4489 154.391 27.7862C154.832 28.1191 155.371 28.2855 156.01 28.2855C156.676 28.2855 157.231 28.1101 157.677 27.7592C158.126 27.4039 158.464 26.9271 158.689 26.3288C158.918 25.7261 159.033 25.0559 159.033 24.3182C159.033 23.5895 158.92 22.9328 158.695 22.348C158.475 21.7588 158.14 21.2932 157.69 20.9513C157.245 20.605 156.685 20.4318 156.01 20.4318C155.362 20.4318 154.818 20.596 154.377 20.9244C153.936 21.2482 153.604 21.7025 153.379 22.2873C153.154 22.8675 153.041 23.5445 153.041 24.3182ZM166.104 29.7429C165.447 29.7429 164.851 29.6192 164.316 29.3718C163.781 29.1199 163.355 28.7578 163.041 28.2855C162.726 27.8087 162.568 27.233 162.568 26.5582C162.568 25.9645 162.685 25.4832 162.919 25.1143C163.153 24.741 163.466 24.4486 163.857 24.2372C164.248 24.0258 164.68 23.8684 165.152 23.7649C165.629 23.657 166.108 23.5715 166.59 23.5085C167.219 23.4276 167.73 23.3668 168.121 23.3263C168.517 23.2814 168.805 23.2071 168.985 23.1037C169.169 23.0002 169.261 22.8203 169.261 22.5639V22.5099C169.261 21.8442 169.079 21.3269 168.715 20.9581C168.355 20.5893 167.809 20.4048 167.075 20.4048C166.315 20.4048 165.719 20.5713 165.287 20.9041C164.856 21.237 164.552 21.5923 164.377 21.9702L162.865 21.4304C163.135 20.8007 163.495 20.3104 163.945 19.9595C164.399 19.6042 164.894 19.3568 165.429 19.2173C165.969 19.0734 166.5 19.0014 167.021 19.0014C167.354 19.0014 167.737 19.0419 168.168 19.1229C168.605 19.1993 169.025 19.359 169.43 19.6019C169.839 19.8448 170.179 20.2114 170.449 20.7017C170.719 21.192 170.854 21.8487 170.854 22.6719V29.5H169.261V28.0966H169.18C169.073 28.3215 168.893 28.5621 168.641 28.8185C168.389 29.0749 168.054 29.2931 167.635 29.473C167.217 29.6529 166.707 29.7429 166.104 29.7429ZM166.347 28.3125C166.976 28.3125 167.507 28.1888 167.939 27.9414C168.375 27.694 168.704 27.3746 168.924 26.9833C169.149 26.592 169.261 26.1804 169.261 25.7486V24.2912C169.194 24.3722 169.046 24.4464 168.816 24.5138C168.591 24.5768 168.33 24.633 168.033 24.6825C167.741 24.7275 167.455 24.768 167.177 24.804C166.902 24.8355 166.68 24.8625 166.509 24.8849C166.095 24.9389 165.708 25.0266 165.348 25.1481C164.993 25.265 164.705 25.4427 164.484 25.6811C164.269 25.915 164.161 26.2344 164.161 26.6392C164.161 27.1925 164.365 27.6108 164.775 27.8942C165.188 28.1731 165.712 28.3125 166.347 28.3125ZM173.112 29.5L177.323 24.2372L173.166 19.1364H175.056L178.51 23.5625H179.374V19.1364H180.966V23.5625H181.803L185.257 19.1364H187.146L183.017 24.2372L187.2 29.5H185.284L181.776 25.0469H180.966V29.5H179.374V25.0469H178.564L175.029 29.5H173.112ZM196.412 23.5895V25.0739H190.69V23.5895H196.412ZM191.068 19.1364V29.5H189.476V19.1364H191.068ZM197.627 19.1364V29.5H196.034V19.1364H197.627ZM204.88 29.7159C203.881 29.7159 203.02 29.4955 202.296 29.0547C201.576 28.6094 201.02 27.9886 200.629 27.1925C200.242 26.3918 200.049 25.4607 200.049 24.3991C200.049 23.3376 200.242 22.402 200.629 21.5923C201.02 20.7782 201.565 20.1439 202.262 19.6896C202.964 19.2308 203.782 19.0014 204.718 19.0014C205.258 19.0014 205.791 19.0914 206.317 19.2713C206.843 19.4512 207.322 19.7436 207.754 20.1484C208.186 20.5488 208.53 21.0795 208.786 21.7408C209.043 22.402 209.171 23.2161 209.171 24.1832V24.858H201.182V23.4815H207.552C207.552 22.8968 207.435 22.375 207.201 21.9162C206.971 21.4574 206.643 21.0953 206.216 20.8299C205.793 20.5645 205.294 20.4318 204.718 20.4318C204.084 20.4318 203.535 20.5893 203.071 20.9041C202.613 21.2145 202.26 21.6193 202.012 22.1186C201.765 22.6179 201.641 23.1532 201.641 23.7244V24.642C201.641 25.4247 201.776 26.0882 202.046 26.6325C202.32 27.1722 202.7 27.5838 203.186 27.8672C203.672 28.1461 204.236 28.2855 204.88 28.2855C205.298 28.2855 205.676 28.227 206.013 28.1101C206.355 27.9886 206.65 27.8087 206.897 27.5703C207.145 27.3274 207.336 27.026 207.471 26.6662L209.009 27.098C208.847 27.6198 208.575 28.0786 208.193 28.4744C207.81 28.8658 207.338 29.1716 206.776 29.392C206.213 29.608 205.581 29.7159 204.88 29.7159ZM218.529 23.5895V25.0739H212.808V23.5895H218.529ZM213.185 19.1364V29.5H211.593V19.1364H213.185ZM219.744 19.1364V29.5H218.151V19.1364H219.744ZM224.244 27.152L229.237 19.1364H231.072V29.5H229.48V21.4844L224.514 29.5H222.652V19.1364H224.244V27.152ZM240.223 29.5V20.5938H237.47C236.849 20.5938 236.361 20.7377 236.006 21.0256C235.651 21.3134 235.473 21.7093 235.473 22.2131C235.473 22.7079 235.633 23.0969 235.952 23.3803C236.276 23.6637 236.719 23.8054 237.281 23.8054H240.628V25.2898H237.281C236.58 25.2898 235.975 25.1661 235.466 24.9187C234.958 24.6713 234.567 24.3182 234.292 23.8594C234.018 23.3961 233.881 22.8473 233.881 22.2131C233.881 21.5743 234.025 21.0256 234.312 20.5668C234.6 20.108 235.012 19.7549 235.547 19.5075C236.087 19.2601 236.728 19.1364 237.47 19.1364H241.734V29.5H240.223ZM233.314 29.5L236.256 24.3452H237.983L235.041 29.5H233.314Z" fill="#232323"/>
<path d="M266.531 23.5307L259.031 31.0307C258.961 31.1004 258.878 31.1556 258.787 31.1933C258.696 31.2311 258.598 31.2505 258.5 31.2505C258.401 31.2505 258.304 31.2311 258.213 31.1933C258.122 31.1556 258.039 31.1004 257.969 31.0307C257.9 30.961 257.844 30.8783 257.807 30.7872C257.769 30.6962 257.75 30.5986 257.75 30.5001C257.75 30.4015 257.769 30.3039 257.807 30.2129C257.844 30.1218 257.9 30.0391 257.969 29.9694L264.94 23.0001L257.969 16.0307C257.829 15.8899 257.75 15.6991 257.75 15.5001C257.75 15.301 257.829 15.1102 257.969 14.9694C258.11 14.8287 258.301 14.7496 258.5 14.7496C258.699 14.7496 258.89 14.8287 259.031 14.9694L266.531 22.4694C266.6 22.5391 266.656 22.6218 266.693 22.7128C266.731 22.8039 266.751 22.9015 266.751 23.0001C266.751 23.0986 266.731 23.1962 266.693 23.2873C266.656 23.3783 266.6 23.461 266.531 23.5307Z" fill="#232323"/>
<path d="M315 0V13L328 13L315 0Z" fill="#B6FFFB"/>
<rect x="315" y="13" width="13" height="33" fill="#B6FFFB"/>
</svg>
