<svg width="320" height="47" viewBox="0 0 320 47" fill="none" xmlns="http://www.w3.org/2000/svg">
<path d="M13 46.5L13 33.5L1.1365e-06 33.5L13 46.5Z" fill="#B6FFFB"/>
<rect x="13" y="33.5" width="13" height="33" transform="rotate(-180 13 33.5)" fill="#B6FFFB"/>
<rect width="294" height="46" transform="translate(13 0.5)" fill="#B6FFFB"/>
<path d="M120.758 16.1818V30H119.084V17.6662H112.121V30H110.448V16.1818H120.758ZM128.127 30.2159C127.191 30.2159 126.371 29.9933 125.664 29.5479C124.963 29.1026 124.414 28.4796 124.018 27.679C123.627 26.8783 123.431 25.9427 123.431 24.8722C123.431 23.7926 123.627 22.8503 124.018 22.0451C124.414 21.2399 124.963 20.6147 125.664 20.1694C126.371 19.7241 127.191 19.5014 128.127 19.5014C129.063 19.5014 129.881 19.7241 130.583 20.1694C131.289 20.6147 131.838 21.2399 132.229 22.0451C132.625 22.8503 132.823 23.7926 132.823 24.8722C132.823 25.9427 132.625 26.8783 132.229 27.679C131.838 28.4796 131.289 29.1026 130.583 29.5479C129.881 29.9933 129.063 30.2159 128.127 30.2159ZM128.127 28.7855C128.838 28.7855 129.423 28.6033 129.881 28.239C130.34 27.8746 130.68 27.3956 130.9 26.8018C131.121 26.2081 131.231 25.5649 131.231 24.8722C131.231 24.1795 131.121 23.534 130.9 22.9357C130.68 22.3375 130.34 21.8539 129.881 21.4851C129.423 21.1162 128.838 20.9318 128.127 20.9318C127.416 20.9318 126.832 21.1162 126.373 21.4851C125.914 21.8539 125.574 22.3375 125.354 22.9357C125.134 23.534 125.023 24.1795 125.023 24.8722C125.023 25.5649 125.134 26.2081 125.354 26.8018C125.574 27.3956 125.914 27.8746 126.373 28.239C126.832 28.6033 127.416 28.7855 128.127 28.7855ZM142.19 24.0895V25.5739H136.468V24.0895H142.19ZM136.846 19.6364V30H135.254V19.6364H136.846ZM143.404 19.6364V30H141.812V19.6364H143.404ZM152.547 30V21.0938H149.794C149.173 21.0938 148.685 21.2377 148.33 21.5256C147.974 21.8134 147.797 22.2093 147.797 22.7131C147.797 23.2079 147.956 23.5969 148.276 23.8803C148.6 24.1637 149.043 24.3054 149.605 24.3054H152.952V25.7898H149.605C148.903 25.7898 148.298 25.6661 147.79 25.4187C147.282 25.1713 146.89 24.8182 146.616 24.3594C146.342 23.8961 146.204 23.3473 146.204 22.7131C146.204 22.0743 146.348 21.5256 146.636 21.0668C146.924 20.608 147.336 20.2549 147.871 20.0075C148.411 19.7601 149.052 19.6364 149.794 19.6364H154.058V30H152.547ZM145.638 30L148.579 24.8452H150.307L147.365 30H145.638ZM155.571 21.1207V19.6364H163.992V21.1207H160.591V30H158.999V21.1207H155.571ZM173.25 24.0895V25.5739H167.529V24.0895H173.25ZM167.907 19.6364V30H166.314V19.6364H167.907ZM174.465 19.6364V30H172.873V19.6364H174.465ZM181.583 30.2159C180.648 30.2159 179.827 29.9933 179.12 29.5479C178.419 29.1026 177.87 28.4796 177.474 27.679C177.083 26.8783 176.887 25.9427 176.887 24.8722C176.887 23.7926 177.083 22.8503 177.474 22.0451C177.87 21.2399 178.419 20.6147 179.12 20.1694C179.827 19.7241 180.648 19.5014 181.583 19.5014C182.519 19.5014 183.337 19.7241 184.039 20.1694C184.745 20.6147 185.294 21.2399 185.685 22.0451C186.081 22.8503 186.279 23.7926 186.279 24.8722C186.279 25.9427 186.081 26.8783 185.685 27.679C185.294 28.4796 184.745 29.1026 184.039 29.5479C183.337 29.9933 182.519 30.2159 181.583 30.2159ZM181.583 28.7855C182.294 28.7855 182.879 28.6033 183.337 28.239C183.796 27.8746 184.136 27.3956 184.356 26.8018C184.577 26.2081 184.687 25.5649 184.687 24.8722C184.687 24.1795 184.577 23.534 184.356 22.9357C184.136 22.3375 183.796 21.8539 183.337 21.4851C182.879 21.1162 182.294 20.9318 181.583 20.9318C180.872 20.9318 180.288 21.1162 179.829 21.4851C179.37 21.8539 179.03 22.3375 178.81 22.9357C178.59 23.534 178.479 24.1795 178.479 24.8722C178.479 25.5649 178.59 26.2081 178.81 26.8018C179.03 27.3956 179.37 27.8746 179.829 28.239C180.288 28.6033 180.872 28.7855 181.583 28.7855Z" fill="#232323"/>
<path d="M206.531 24.0306L199.031 31.5306C198.961 31.6003 198.878 31.6556 198.787 31.6933C198.696 31.731 198.599 31.7504 198.5 31.7504C198.401 31.7504 198.304 31.731 198.213 31.6933C198.122 31.6556 198.039 31.6003 197.969 31.5306C197.9 31.4609 197.844 31.3782 197.807 31.2872C197.769 31.1961 197.75 31.0985 197.75 31C197.75 30.9015 197.769 30.8039 197.807 30.7128C197.844 30.6218 197.9 30.5391 197.969 30.4694L204.94 23.5L197.969 16.5306C197.829 16.3899 197.75 16.199 197.75 16C197.75 15.801 197.829 15.6101 197.969 15.4694C198.11 15.3286 198.301 15.2496 198.5 15.2496C198.699 15.2496 198.89 15.3286 199.031 15.4694L206.531 22.9694C206.6 23.039 206.656 23.1217 206.693 23.2128C206.731 23.3038 206.751 23.4014 206.751 23.5C206.751 23.5986 206.731 23.6962 206.693 23.7872C206.656 23.8783 206.6 23.961 206.531 24.0306Z" fill="#232323"/>
<path d="M307 0.5V13.5L320 13.5L307 0.5Z" fill="#B6FFFB"/>
<rect x="307" y="13.5" width="13" height="33" fill="#B6FFFB"/>
</svg>
