<svg width="320" height="46" viewBox="0 0 320 46" fill="none" xmlns="http://www.w3.org/2000/svg">
<path d="M13 46L13 33L1.1365e-06 33L13 46Z" fill="#B6FFFB" fill-opacity="0.1"/>
<rect x="13" y="33" width="13" height="33" transform="rotate(-180 13 33)" fill="#B6FFFB" fill-opacity="0.1"/>
<rect width="307" height="46" transform="translate(13)" fill="#B6FFFB" fill-opacity="0.1"/>
<path d="M56.7707 15.6818V29.5H55.0974V17.1662H48.1343V29.5H46.461V15.6818H56.7707ZM64.2752 29.7159C63.2766 29.7159 62.4152 29.4955 61.6911 29.0547C60.9714 28.6094 60.4158 27.9886 60.0245 27.1925C59.6377 26.3918 59.4442 25.4607 59.4442 24.3991C59.4442 23.3376 59.6377 22.402 60.0245 21.5923C60.4158 20.7782 60.9601 20.1439 61.6573 19.6896C62.359 19.2308 63.1777 19.0014 64.1133 19.0014C64.6531 19.0014 65.1861 19.0914 65.7124 19.2713C66.2386 19.4512 66.7177 19.7436 67.1495 20.1484C67.5813 20.5488 67.9254 21.0795 68.1818 21.7408C68.4382 22.402 68.5664 23.2161 68.5664 24.1832V24.858H60.5778V23.4815H66.9471C66.9471 22.8968 66.8301 22.375 66.5962 21.9162C66.3668 21.4574 66.0385 21.0953 65.6112 20.8299C65.1883 20.5645 64.689 20.4318 64.1133 20.4318C63.479 20.4318 62.9303 20.5893 62.467 20.9041C62.0082 21.2145 61.6551 21.6193 61.4077 22.1186C61.1603 22.6179 61.0366 23.1532 61.0366 23.7244V24.642C61.0366 25.4247 61.1715 26.0882 61.4414 26.6325C61.7158 27.1722 62.0959 27.5838 62.5817 27.8672C63.0675 28.1461 63.632 28.2855 64.2752 28.2855C64.6935 28.2855 65.0714 28.227 65.4087 28.1101C65.7506 27.9886 66.0452 27.8087 66.2926 27.5703C66.54 27.3274 66.7312 27.026 66.8661 26.6662L68.4045 27.098C68.2425 27.6198 67.9704 28.0786 67.5881 28.4744C67.2057 28.8658 66.7334 29.1716 66.1712 29.392C65.6089 29.608 64.9769 29.7159 64.2752 29.7159ZM70.9886 33.3864V19.1364H72.527V20.7827H72.7159C72.8329 20.6027 72.9948 20.3733 73.2017 20.0945C73.4131 19.8111 73.7145 19.5592 74.1058 19.3388C74.5017 19.1139 75.0369 19.0014 75.7116 19.0014C76.5843 19.0014 77.3535 19.2196 78.0192 19.6559C78.6849 20.0922 79.2044 20.7107 79.5778 21.5114C79.9511 22.312 80.1378 23.2566 80.1378 24.3452C80.1378 25.4427 79.9511 26.3941 79.5778 27.1992C79.2044 27.9999 78.6871 28.6206 78.0259 29.0614C77.3647 29.4978 76.6023 29.7159 75.7386 29.7159C75.0729 29.7159 74.5399 29.6057 74.1396 29.3853C73.7392 29.1604 73.4311 28.9062 73.2152 28.6229C72.9993 28.335 72.8329 28.0966 72.7159 27.9077H72.581V33.3864H70.9886ZM72.554 24.3182C72.554 25.1009 72.6687 25.7913 72.8981 26.3896C73.1275 26.9833 73.4626 27.4489 73.9034 27.7862C74.3442 28.1191 74.884 28.2855 75.5227 28.2855C76.1884 28.2855 76.744 28.1101 77.1893 27.7592C77.6391 27.4039 77.9764 26.9271 78.2013 26.3288C78.4308 25.7261 78.5455 25.0559 78.5455 24.3182C78.5455 23.5895 78.433 22.9328 78.2081 22.348C77.9877 21.7588 77.6526 21.2932 77.2028 20.9513C76.7575 20.605 76.1974 20.4318 75.5227 20.4318C74.875 20.4318 74.3307 20.596 73.8899 20.9244C73.4491 21.2482 73.1162 21.7025 72.8913 22.2873C72.6664 22.8675 72.554 23.5445 72.554 24.3182ZM86.9119 29.7159C85.9134 29.7159 85.052 29.4955 84.3278 29.0547C83.6081 28.6094 83.0526 27.9886 82.6612 27.1925C82.2744 26.3918 82.081 25.4607 82.081 24.3991C82.081 23.3376 82.2744 22.402 82.6612 21.5923C83.0526 20.7782 83.5968 20.1439 84.294 19.6896C84.9957 19.2308 85.8144 19.0014 86.75 19.0014C87.2898 19.0014 87.8228 19.0914 88.3491 19.2713C88.8754 19.4512 89.3544 19.7436 89.7862 20.1484C90.218 20.5488 90.5621 21.0795 90.8185 21.7408C91.0749 22.402 91.2031 23.2161 91.2031 24.1832V24.858H83.2145V23.4815H89.5838C89.5838 22.8968 89.4669 22.375 89.233 21.9162C89.0036 21.4574 88.6752 21.0953 88.2479 20.8299C87.825 20.5645 87.3258 20.4318 86.75 20.4318C86.1158 20.4318 85.567 20.5893 85.1037 20.9041C84.6449 21.2145 84.2918 21.6193 84.0444 22.1186C83.797 22.6179 83.6733 23.1532 83.6733 23.7244V24.642C83.6733 25.4247 83.8082 26.0882 84.0781 26.6325C84.3525 27.1722 84.7326 27.5838 85.2184 27.8672C85.7042 28.1461 86.2687 28.2855 86.9119 28.2855C87.3303 28.2855 87.7081 28.227 88.0455 28.1101C88.3873 27.9886 88.6819 27.8087 88.9293 27.5703C89.1767 27.3274 89.3679 27.026 89.5028 26.6662L91.0412 27.098C90.8793 27.6198 90.6071 28.0786 90.2248 28.4744C89.8424 28.8658 89.3701 29.1716 88.8079 29.392C88.2456 29.608 87.6136 29.7159 86.9119 29.7159ZM95.2177 27.152L100.211 19.1364H102.046V29.5H100.453V21.4844L95.4876 29.5H93.6254V19.1364H95.2177V27.152ZM99.158 15.6818H100.642C100.642 16.4105 100.391 17.0065 99.8867 17.4698C99.3829 17.9331 98.6992 18.1648 97.8356 18.1648C96.9854 18.1648 96.3085 17.9331 95.8047 17.4698C95.3054 17.0065 95.0558 16.4105 95.0558 15.6818H96.5401C96.5401 16.0327 96.6368 16.3408 96.8303 16.6062C97.0282 16.8716 97.3633 17.0043 97.8356 17.0043C98.3079 17.0043 98.6452 16.8716 98.8477 16.6062C99.0546 16.3408 99.158 16.0327 99.158 15.6818ZM103.552 20.6207V19.1364H111.973V20.6207H108.572V29.5H106.98V20.6207H103.552ZM115.888 27.152L120.881 19.1364H122.716V29.5H121.123V21.4844L116.157 29.5H114.295V19.1364H115.888V27.152ZM130.976 29.5V19.1364H132.568V23.6435H133.621L137.345 19.1364H139.396L135.213 24.1293L139.45 29.5H137.399L133.999 25.1278H132.568V29.5H130.976ZM150.735 29.7159C149.763 29.7159 148.927 29.4865 148.225 29.0277C147.523 28.5689 146.984 27.9369 146.606 27.1317C146.228 26.3266 146.039 25.4067 146.039 24.3722C146.039 23.3196 146.232 22.3907 146.619 21.5856C147.011 20.7759 147.555 20.1439 148.252 19.6896C148.954 19.2308 149.772 19.0014 150.708 19.0014C151.437 19.0014 152.093 19.1364 152.678 19.4062C153.263 19.6761 153.742 20.054 154.115 20.5398C154.489 21.0256 154.72 21.5923 154.81 22.2401H153.218C153.097 21.7678 152.827 21.3494 152.408 20.9851C151.994 20.6162 151.437 20.4318 150.735 20.4318C150.114 20.4318 149.57 20.5937 149.102 20.9176C148.639 21.237 148.277 21.689 148.016 22.2738C147.759 22.854 147.631 23.5355 147.631 24.3182C147.631 25.1188 147.757 25.8161 148.009 26.4098C148.266 27.0036 148.625 27.4646 149.089 27.793C149.556 28.1213 150.105 28.2855 150.735 28.2855C151.149 28.2855 151.524 28.2135 151.862 28.0696C152.199 27.9257 152.485 27.7188 152.719 27.4489C152.953 27.179 153.119 26.8551 153.218 26.4773H154.81C154.72 27.089 154.498 27.64 154.142 28.1303C153.791 28.6161 153.326 29.003 152.746 29.2908C152.17 29.5742 151.5 29.7159 150.735 29.7159ZM156.22 29.5V28.0156H156.598C156.909 28.0156 157.167 27.9549 157.374 27.8335C157.581 27.7075 157.748 27.4893 157.873 27.179C158.004 26.8641 158.103 26.4278 158.17 25.87C158.242 25.3078 158.294 24.5926 158.326 23.7244L158.514 19.1364H165.424V29.5H163.831V20.6207H160.026L159.864 24.3182C159.828 25.1683 159.751 25.9173 159.634 26.565C159.522 27.2082 159.349 27.748 159.115 28.1843C158.886 28.6206 158.58 28.949 158.197 29.1694C157.815 29.3898 157.336 29.5 156.76 29.5H156.22ZM172.69 29.7159C171.692 29.7159 170.83 29.4955 170.106 29.0547C169.386 28.6094 168.831 27.9886 168.44 27.1925C168.053 26.3918 167.859 25.4607 167.859 24.3991C167.859 23.3376 168.053 22.402 168.44 21.5923C168.831 20.7782 169.375 20.1439 170.072 19.6896C170.774 19.2308 171.593 19.0014 172.528 19.0014C173.068 19.0014 173.601 19.0914 174.127 19.2713C174.654 19.4512 175.133 19.7436 175.565 20.1484C175.996 20.5488 176.34 21.0795 176.597 21.7408C176.853 22.402 176.981 23.2161 176.981 24.1832V24.858H168.993V23.4815H175.362C175.362 22.8968 175.245 22.375 175.011 21.9162C174.782 21.4574 174.454 21.0953 174.026 20.8299C173.603 20.5645 173.104 20.4318 172.528 20.4318C171.894 20.4318 171.345 20.5893 170.882 20.9041C170.423 21.2145 170.07 21.6193 169.823 22.1186C169.575 22.6179 169.452 23.1532 169.452 23.7244V24.642C169.452 25.4247 169.587 26.0882 169.856 26.6325C170.131 27.1722 170.511 27.5838 170.997 27.8672C171.483 28.1461 172.047 28.2855 172.69 28.2855C173.109 28.2855 173.486 28.227 173.824 28.1101C174.166 27.9886 174.46 27.8087 174.708 27.5703C174.955 27.3274 175.146 27.026 175.281 26.6662L176.82 27.098C176.658 27.6198 176.385 28.0786 176.003 28.4744C175.621 28.8658 175.148 29.1716 174.586 29.392C174.024 29.608 173.392 29.7159 172.69 29.7159ZM178.297 32.4688V28.0156H179.161C179.372 27.7952 179.554 27.5568 179.707 27.3004C179.86 27.044 179.993 26.7404 180.105 26.3896C180.222 26.0342 180.321 25.6024 180.402 25.0941C180.483 24.5813 180.555 23.9628 180.618 23.2386L180.969 19.1364H187.554V28.0156H189.147V32.4688H187.554V29.5H179.889V32.4688H178.297ZM180.969 28.0156H185.962V20.6207H182.453L182.184 23.2386C182.071 24.3227 181.932 25.2695 181.765 26.0792C181.599 26.8888 181.333 27.5343 180.969 28.0156ZM192.286 33.3864C192.016 33.3864 191.775 33.3639 191.564 33.3189C191.352 33.2784 191.206 33.2379 191.125 33.1974L191.53 31.794C191.917 31.893 192.259 31.929 192.556 31.902C192.852 31.875 193.116 31.7423 193.345 31.5039C193.579 31.27 193.793 30.8899 193.986 30.3636L194.283 29.554L190.45 19.1364H192.178L195.039 27.3949H195.146L198.007 19.1364H199.735L195.335 31.0114C195.137 31.5466 194.892 31.9897 194.6 32.3406C194.308 32.6959 193.968 32.959 193.581 33.13C193.199 33.3009 192.767 33.3864 192.286 33.3864ZM215.978 28.0156L215.789 32.4688H214.143V29.5H212.794V28.0156H215.978ZM201.836 19.1364H203.429V28.0156H207.342V19.1364H208.934V28.0156H212.848V19.1364H214.44V29.5H201.836V19.1364ZM222.528 29.7159C221.53 29.7159 220.668 29.4955 219.944 29.0547C219.224 28.6094 218.669 27.9886 218.277 27.1925C217.891 26.3918 217.697 25.4607 217.697 24.3991C217.697 23.3376 217.891 22.402 218.277 21.5923C218.669 20.7782 219.213 20.1439 219.91 19.6896C220.612 19.2308 221.431 19.0014 222.366 19.0014C222.906 19.0014 223.439 19.0914 223.965 19.2713C224.492 19.4512 224.971 19.7436 225.402 20.1484C225.834 20.5488 226.178 21.0795 226.435 21.7408C226.691 22.402 226.819 23.2161 226.819 24.1832V24.858H218.831V23.4815H225.2C225.2 22.8968 225.083 22.375 224.849 21.9162C224.62 21.4574 224.291 21.0953 223.864 20.8299C223.441 20.5645 222.942 20.4318 222.366 20.4318C221.732 20.4318 221.183 20.5893 220.72 20.9041C220.261 21.2145 219.908 21.6193 219.661 22.1186C219.413 22.6179 219.29 23.1532 219.29 23.7244V24.642C219.29 25.4247 219.424 26.0882 219.694 26.6325C219.969 27.1722 220.349 27.5838 220.835 27.8672C221.32 28.1461 221.885 28.2855 222.528 28.2855C222.946 28.2855 223.324 28.227 223.662 28.1101C224.004 27.9886 224.298 27.8087 224.546 27.5703C224.793 27.3274 224.984 27.026 225.119 26.6662L226.657 27.098C226.495 27.6198 226.223 28.0786 225.841 28.4744C225.459 28.8658 224.986 29.1716 224.424 29.392C223.862 29.608 223.23 29.7159 222.528 29.7159ZM234.909 27.3409L238.526 19.1364H240.037L235.557 29.5H234.261L229.862 19.1364H231.347L234.909 27.3409ZM230.834 19.1364V29.5H229.242V19.1364H230.834ZM238.984 29.5V19.1364H240.577V29.5H238.984ZM244.146 33.3864C243.876 33.3864 243.636 33.3639 243.424 33.3189C243.213 33.2784 243.066 33.2379 242.986 33.1974L243.39 31.794C243.777 31.893 244.119 31.929 244.416 31.902C244.713 31.875 244.976 31.7423 245.205 31.5039C245.439 31.27 245.653 30.8899 245.846 30.3636L246.143 29.554L242.311 19.1364H244.038L246.899 27.3949H247.007L249.868 19.1364H251.595L247.196 31.0114C246.998 31.5466 246.753 31.9897 246.46 32.3406C246.168 32.6959 245.828 32.959 245.441 33.13C245.059 33.3009 244.627 33.3864 244.146 33.3864Z" fill="#B6FFFB"/>
<path d="M275.531 23.5306L268.031 31.0306C267.961 31.1003 267.878 31.1556 267.787 31.1933C267.696 31.231 267.598 31.2504 267.5 31.2504C267.401 31.2504 267.304 31.231 267.213 31.1933C267.122 31.1556 267.039 31.1003 266.969 31.0306C266.9 30.9609 266.844 30.8782 266.807 30.7872C266.769 30.6961 266.75 30.5985 266.75 30.5C266.75 30.4014 266.769 30.3039 266.807 30.2128C266.844 30.1218 266.9 30.039 266.969 29.9694L273.94 23L266.969 16.0306C266.829 15.8899 266.75 15.699 266.75 15.5C266.75 15.301 266.829 15.1101 266.969 14.9694C267.11 14.8286 267.301 14.7496 267.5 14.7496C267.699 14.7496 267.89 14.8286 268.031 14.9694L275.531 22.4694C275.6 22.539 275.656 22.6217 275.693 22.7128C275.731 22.8038 275.751 22.9014 275.751 23C275.751 23.0986 275.731 23.1961 275.693 23.2872C275.656 23.3782 275.6 23.461 275.531 23.5306Z" fill="#B6FFFB"/>
</svg>
