<svg width="160" height="46" viewBox="0 0 160 46" fill="none" xmlns="http://www.w3.org/2000/svg">
<path d="M13 46L13 33L1.1365e-06 33L13 46Z" fill="#B6FFFB"/>
<rect x="13" y="33" width="13" height="33" transform="rotate(-180 13 33)" fill="#B6FFFB"/>
<rect width="147" height="46" transform="translate(13)" fill="#B6FFFB"/>
<path opacity="0.2" d="M46.0001 31.25L43.7501 31.25C43.5512 31.25 43.3604 31.171 43.2197 31.0303C43.0791 30.8897 43.0001 30.6989 43.0001 30.5L43.0001 15.5C43.0001 15.3011 43.0791 15.1103 43.2197 14.9697C43.3604 14.829 43.5512 14.75 43.7501 14.75L46.0001 14.75C46.199 14.75 46.3897 14.829 46.5304 14.9697C46.671 15.1103 46.7501 15.3011 46.7501 15.5L46.7501 30.5C46.7501 30.6989 46.671 30.8897 46.5304 31.0303C46.3897 31.171 46.199 31.25 46.0001 31.25ZM49.7501 15.5216L49.7501 30.4784C49.7501 31.1497 50.5254 31.4994 51.0035 31.0409L58.2691 24.1278C58.4213 23.9812 58.5423 23.8055 58.625 23.611C58.7076 23.4166 58.7502 23.2075 58.7502 22.9962C58.7502 22.785 58.7076 22.5759 58.625 22.3814C58.5423 22.187 58.4213 22.0113 58.2691 21.8647L51.0035 14.9516C50.5254 14.5006 49.7501 14.8503 49.7501 15.5216Z" fill="#232323"/>
<path d="M47.4999 30.5L47.4999 15.5C47.4999 15.1022 47.3418 14.7206 47.0605 14.4393C46.7792 14.158 46.3977 14 45.9999 14L43.7499 14C43.3521 14 42.9705 14.158 42.6892 14.4393C42.4079 14.7206 42.2499 15.1022 42.2499 15.5L42.2499 30.5C42.2499 30.8978 42.4079 31.2794 42.6892 31.5607C42.9705 31.842 43.3521 32 43.7499 32L45.9999 32C46.3977 32 46.7792 31.842 47.0605 31.5607C47.3418 31.2794 47.4999 30.8978 47.4999 30.5ZM43.7499 30.5L43.7499 15.5L45.9999 15.5L45.9999 30.5L43.7499 30.5ZM48.9999 15.5225L48.9999 30.4775C48.9984 30.7748 49.0844 31.066 49.2471 31.3148C49.4098 31.5637 49.642 31.7592 49.9149 31.8772C50.181 31.9937 50.4758 32.0284 50.7617 31.9766C51.0476 31.9248 51.3115 31.789 51.5199 31.5866L58.7864 24.6744C59.012 24.4578 59.1916 24.1978 59.3142 23.91C59.4368 23.6223 59.5 23.3128 59.5 23C59.5 22.6872 59.4368 22.3777 59.3142 22.09C59.1916 21.8022 59.012 21.5422 58.7864 21.3256L51.5199 14.4134C51.3115 14.211 51.0476 14.0752 50.7617 14.0234C50.4758 13.9716 50.181 14.0063 49.9149 14.1228C49.642 14.2408 49.4098 14.4363 49.2471 14.6852C49.0844 14.934 48.9984 15.2252 48.9999 15.5225ZM57.7524 22.4122C57.8307 22.4888 57.8929 22.5802 57.9354 22.6811C57.9778 22.7821 57.9997 22.8905 57.9997 23C57.9997 23.1095 57.9778 23.2179 57.9354 23.3189C57.8929 23.4198 57.8307 23.5112 57.7524 23.5878L50.4999 30.4859L50.4999 15.5131L57.7524 22.4122Z" fill="#232323"/>
<path d="M81.7389 20H80.0656C79.9666 19.5187 79.7935 19.0959 79.5461 18.7315C79.3032 18.3672 79.0063 18.0613 78.6555 17.8139C78.3091 17.562 77.9245 17.3731 77.5017 17.2472C77.0789 17.1212 76.6381 17.0582 76.1792 17.0582C75.3426 17.0582 74.5847 17.2696 73.9055 17.6925C73.2307 18.1153 72.6932 18.7383 72.2929 19.5614C71.897 20.3846 71.6991 21.3944 71.6991 22.5909C71.6991 23.7874 71.897 24.7972 72.2929 25.6204C72.6932 26.4435 73.2307 27.0665 73.9055 27.4893C74.5847 27.9122 75.3426 28.1236 76.1792 28.1236C76.6381 28.1236 77.0789 28.0606 77.5017 27.9347C77.9245 27.8087 78.3091 27.622 78.6555 27.3746C79.0063 27.1228 79.3032 26.8146 79.5461 26.4503C79.7935 26.0814 79.9666 25.6586 80.0656 25.1818H81.7389C81.613 25.888 81.3836 26.52 81.0507 27.0778C80.7178 27.6355 80.304 28.1101 79.8092 28.5014C79.3144 28.8883 78.7589 29.1829 78.1427 29.3853C77.5309 29.5877 76.8765 29.6889 76.1792 29.6889C75.0007 29.6889 73.9527 29.401 73.0351 28.8253C72.1175 28.2495 71.3955 27.4309 70.8692 26.3693C70.343 25.3078 70.0798 24.0483 70.0798 22.5909C70.0798 21.1335 70.343 19.8741 70.8692 18.8125C71.3955 17.7509 72.1175 16.9323 73.0351 16.3565C73.9527 15.7808 75.0007 15.4929 76.1792 15.4929C76.8765 15.4929 77.5309 15.5941 78.1427 15.7965C78.7589 15.9989 79.3144 16.2958 79.8092 16.6871C80.304 17.074 80.7178 17.5463 81.0507 18.104C81.3836 18.6573 81.613 19.2893 81.7389 20ZM83.6332 20.6207V19.1364H92.0536V20.6207H88.6531V29.5H87.0607V20.6207H83.6332ZM96.888 29.7429C96.2312 29.7429 95.6352 29.6192 95.1 29.3718C94.5647 29.1199 94.1396 28.7578 93.8248 28.2855C93.5099 27.8087 93.3525 27.233 93.3525 26.5582C93.3525 25.9645 93.4694 25.4832 93.7033 25.1143C93.9372 24.741 94.2498 24.4486 94.6412 24.2372C95.0325 24.0258 95.4643 23.8684 95.9366 23.7649C96.4134 23.657 96.8925 23.5715 97.3738 23.5085C98.0035 23.4276 98.514 23.3668 98.9054 23.3263C99.3012 23.2814 99.5891 23.2071 99.769 23.1037C99.9534 23.0002 100.046 22.8203 100.046 22.5639V22.5099C100.046 21.8442 99.8635 21.3269 99.4991 20.9581C99.1393 20.5893 98.5927 20.4048 97.8596 20.4048C97.0994 20.4048 96.5034 20.5713 96.0716 20.9041C95.6397 21.237 95.3361 21.5923 95.1607 21.9702L93.6493 21.4304C93.9192 20.8007 94.2791 20.3104 94.7289 19.9595C95.1832 19.6042 95.678 19.3568 96.2132 19.2173C96.753 19.0734 97.2838 19.0014 97.8056 19.0014C98.1384 19.0014 98.5208 19.0419 98.9526 19.1229C99.3889 19.1993 99.8095 19.359 100.214 19.6019C100.624 19.8448 100.963 20.2114 101.233 20.7017C101.503 21.192 101.638 21.8487 101.638 22.6719V29.5H100.046V28.0966H99.9647C99.8567 28.3215 99.6768 28.5621 99.4249 28.8185C99.173 29.0749 98.8379 29.2931 98.4196 29.473C98.0012 29.6529 97.4907 29.7429 96.888 29.7429ZM97.1309 28.3125C97.7606 28.3125 98.2914 28.1888 98.7232 27.9414C99.1595 27.694 99.4879 27.3746 99.7083 26.9833C99.9332 26.592 100.046 26.1804 100.046 25.7486V24.2912C99.9782 24.3722 99.8297 24.4464 99.6003 24.5138C99.3754 24.5768 99.1145 24.633 98.8176 24.6825C98.5253 24.7275 98.2396 24.768 97.9608 24.804C97.6864 24.8355 97.4637 24.8625 97.2928 24.8849C96.879 24.9389 96.4921 25.0266 96.1323 25.1481C95.7769 25.265 95.4891 25.4427 95.2686 25.6811C95.0527 25.915 94.9448 26.2344 94.9448 26.6392C94.9448 27.1925 95.1494 27.6108 95.5588 27.8942C95.9726 28.1731 96.4966 28.3125 97.1309 28.3125ZM104.544 33.3864V19.1364H106.083V20.7827H106.272C106.389 20.6027 106.55 20.3733 106.757 20.0945C106.969 19.8111 107.27 19.5592 107.661 19.3388C108.057 19.1139 108.593 19.0014 109.267 19.0014C110.14 19.0014 110.909 19.2196 111.575 19.6559C112.241 20.0922 112.76 20.7107 113.133 21.5114C113.507 22.312 113.693 23.2566 113.693 24.3452C113.693 25.4427 113.507 26.3941 113.133 27.1992C112.76 27.9999 112.243 28.6206 111.582 29.0614C110.92 29.4978 110.158 29.7159 109.294 29.7159C108.629 29.7159 108.096 29.6057 107.695 29.3853C107.295 29.1604 106.987 28.9062 106.771 28.6229C106.555 28.335 106.389 28.0966 106.272 27.9077H106.137V33.3864H104.544ZM106.11 24.3182C106.11 25.1009 106.224 25.7913 106.454 26.3896C106.683 26.9833 107.018 27.4489 107.459 27.7862C107.9 28.1191 108.44 28.2855 109.078 28.2855C109.744 28.2855 110.3 28.1101 110.745 27.7592C111.195 27.4039 111.532 26.9271 111.757 26.3288C111.986 25.7261 112.101 25.0559 112.101 24.3182C112.101 23.5895 111.989 22.9328 111.764 22.348C111.543 21.7588 111.208 21.2932 110.758 20.9513C110.313 20.605 109.753 20.4318 109.078 20.4318C108.431 20.4318 107.886 20.596 107.446 20.9244C107.005 21.2482 106.672 21.7025 106.447 22.2873C106.222 22.8675 106.11 23.5445 106.11 24.3182ZM114.768 20.6207V19.1364H123.188V20.6207H119.788V29.5H118.195V20.6207H114.768Z" fill="#232323"/>
</svg>
