<svg width="320" height="46" viewBox="0 0 320 46" fill="none" xmlns="http://www.w3.org/2000/svg">
<path d="M13 46L13 33L1.1365e-06 33L13 46Z" fill="#B6FFFB"/>
<rect x="13" y="33" width="13" height="33" transform="rotate(-180 13 33)" fill="#B6FFFB"/>
<rect width="294" height="46" transform="translate(13)" fill="#B6FFFB"/>
<path d="M99.0307 29.9694C99.1004 30.039 99.1557 30.1218 99.1934 30.2128C99.2311 30.3039 99.2505 30.4014 99.2505 30.5C99.2505 30.5985 99.2311 30.6961 99.1934 30.7872C99.1557 30.8782 99.1004 30.9609 99.0307 31.0306C98.961 31.1003 98.8783 31.1556 98.7873 31.1933C98.6962 31.231 98.5986 31.2504 98.5001 31.2504C98.4016 31.2504 98.304 31.231 98.2129 31.1933C98.1219 31.1556 98.0392 31.1003 97.9695 31.0306L90.4695 23.5306C90.3997 23.461 90.3444 23.3782 90.3067 23.2872C90.2689 23.1961 90.2495 23.0986 90.2495 23C90.2495 22.9014 90.2689 22.8038 90.3067 22.7128C90.3444 22.6217 90.3997 22.539 90.4695 22.4694L97.9695 14.9694C98.1102 14.8286 98.3011 14.7496 98.5001 14.7496C98.6991 14.7496 98.89 14.8286 99.0307 14.9694C99.1715 15.1101 99.2505 15.301 99.2505 15.5C99.2505 15.699 99.1715 15.8899 99.0307 16.0306L92.0604 23L99.0307 29.9694Z" fill="#232323"/>
<path d="M111.617 29.5V15.6818H113.29V21.8352H120.658V15.6818H122.332V29.5H120.658V23.3196H113.29V29.5H111.617ZM128.515 29.7429C127.859 29.7429 127.263 29.6192 126.727 29.3718C126.192 29.1199 125.767 28.7578 125.452 28.2855C125.137 27.8087 124.98 27.233 124.98 26.5582C124.98 25.9645 125.097 25.4832 125.331 25.1143C125.565 24.741 125.877 24.4486 126.269 24.2372C126.66 24.0258 127.092 23.8684 127.564 23.7649C128.041 23.657 128.52 23.5715 129.001 23.5085C129.631 23.4276 130.141 23.3668 130.533 23.3263C130.929 23.2814 131.217 23.2071 131.396 23.1037C131.581 23.0002 131.673 22.8203 131.673 22.5639V22.5099C131.673 21.8442 131.491 21.3269 131.127 20.9581C130.767 20.5893 130.22 20.4048 129.487 20.4048C128.727 20.4048 128.131 20.5713 127.699 20.9041C127.267 21.237 126.964 21.5923 126.788 21.9702L125.277 21.4304C125.547 20.8007 125.907 20.3104 126.356 19.9595C126.811 19.6042 127.305 19.3568 127.841 19.2173C128.38 19.0734 128.911 19.0014 129.433 19.0014C129.766 19.0014 130.148 19.0419 130.58 19.1229C131.016 19.1993 131.437 19.359 131.842 19.6019C132.251 19.8448 132.591 20.2114 132.861 20.7017C133.13 21.192 133.265 21.8487 133.265 22.6719V29.5H131.673V28.0966H131.592C131.484 28.3215 131.304 28.5621 131.052 28.8185C130.8 29.0749 130.465 29.2931 130.047 29.473C129.629 29.6529 129.118 29.7429 128.515 29.7429ZM128.758 28.3125C129.388 28.3125 129.919 28.1888 130.351 27.9414C130.787 27.694 131.115 27.3746 131.336 26.9833C131.561 26.592 131.673 26.1804 131.673 25.7486V24.2912C131.606 24.3722 131.457 24.4464 131.228 24.5138C131.003 24.5768 130.742 24.633 130.445 24.6825C130.153 24.7275 129.867 24.768 129.588 24.804C129.314 24.8355 129.091 24.8625 128.92 24.8849C128.506 24.9389 128.12 25.0266 127.76 25.1481C127.404 25.265 127.116 25.4427 126.896 25.6811C126.68 25.915 126.572 26.2344 126.572 26.6392C126.572 27.1925 126.777 27.6108 127.186 27.8942C127.6 28.1731 128.124 28.3125 128.758 28.3125ZM141.515 19.1364H143.108V28.0156H147.021V19.1364H148.614V28.0156H152.527V19.1364H154.119V29.5H141.515V19.1364ZM160.077 29.7429C159.42 29.7429 158.824 29.6192 158.289 29.3718C157.754 29.1199 157.329 28.7578 157.014 28.2855C156.699 27.8087 156.541 27.233 156.541 26.5582C156.541 25.9645 156.658 25.4832 156.892 25.1143C157.126 24.741 157.439 24.4486 157.83 24.2372C158.221 24.0258 158.653 23.8684 159.126 23.7649C159.602 23.657 160.081 23.5715 160.563 23.5085C161.192 23.4276 161.703 23.3668 162.094 23.3263C162.49 23.2814 162.778 23.2071 162.958 23.1037C163.142 23.0002 163.235 22.8203 163.235 22.5639V22.5099C163.235 21.8442 163.052 21.3269 162.688 20.9581C162.328 20.5893 161.782 20.4048 161.049 20.4048C160.288 20.4048 159.692 20.5713 159.261 20.9041C158.829 21.237 158.525 21.5923 158.35 21.9702L156.838 21.4304C157.108 20.8007 157.468 20.3104 157.918 19.9595C158.372 19.6042 158.867 19.3568 159.402 19.2173C159.942 19.0734 160.473 19.0014 160.995 19.0014C161.327 19.0014 161.71 19.0419 162.142 19.1229C162.578 19.1993 162.998 19.359 163.403 19.6019C163.813 19.8448 164.152 20.2114 164.422 20.7017C164.692 21.192 164.827 21.8487 164.827 22.6719V29.5H163.235V28.0966H163.154C163.046 28.3215 162.866 28.5621 162.614 28.8185C162.362 29.0749 162.027 29.2931 161.609 29.473C161.19 29.6529 160.68 29.7429 160.077 29.7429ZM160.32 28.3125C160.95 28.3125 161.48 28.1888 161.912 27.9414C162.348 27.694 162.677 27.3746 162.897 26.9833C163.122 26.592 163.235 26.1804 163.235 25.7486V24.2912C163.167 24.3722 163.019 24.4464 162.789 24.5138C162.564 24.5768 162.303 24.633 162.007 24.6825C161.714 24.7275 161.429 24.768 161.15 24.804C160.875 24.8355 160.653 24.8625 160.482 24.8849C160.068 24.9389 159.681 25.0266 159.321 25.1481C158.966 25.265 158.678 25.4427 158.458 25.6811C158.242 25.915 158.134 26.2344 158.134 26.6392C158.134 27.1925 158.338 27.6108 158.748 27.8942C159.162 28.1731 159.686 28.3125 160.32 28.3125ZM174.13 19.1364V20.6207H169.326V29.5H167.733V19.1364H174.13ZM188.734 23.5895V25.0739H183.012V23.5895H188.734ZM183.39 19.1364V29.5H181.798V19.1364H183.39ZM189.948 19.1364V29.5H188.356V19.1364H189.948ZM195.906 29.7429C195.249 29.7429 194.653 29.6192 194.118 29.3718C193.583 29.1199 193.158 28.7578 192.843 28.2855C192.528 27.8087 192.371 27.233 192.371 26.5582C192.371 25.9645 192.487 25.4832 192.721 25.1143C192.955 24.741 193.268 24.4486 193.659 24.2372C194.051 24.0258 194.482 23.8684 194.955 23.7649C195.431 23.657 195.911 23.5715 196.392 23.5085C197.022 23.4276 197.532 23.3668 197.923 23.3263C198.319 23.2814 198.607 23.2071 198.787 23.1037C198.971 23.0002 199.064 22.8203 199.064 22.5639V22.5099C199.064 21.8442 198.882 21.3269 198.517 20.9581C198.157 20.5893 197.611 20.4048 196.878 20.4048C196.117 20.4048 195.521 20.5713 195.09 20.9041C194.658 21.237 194.354 21.5923 194.179 21.9702L192.667 21.4304C192.937 20.8007 193.297 20.3104 193.747 19.9595C194.201 19.6042 194.696 19.3568 195.231 19.2173C195.771 19.0734 196.302 19.0014 196.824 19.0014C197.157 19.0014 197.539 19.0419 197.971 19.1229C198.407 19.1993 198.828 19.359 199.232 19.6019C199.642 19.8448 199.981 20.2114 200.251 20.7017C200.521 21.192 200.656 21.8487 200.656 22.6719V29.5H199.064V28.0966H198.983C198.875 28.3215 198.695 28.5621 198.443 28.8185C198.191 29.0749 197.856 29.2931 197.438 29.473C197.019 29.6529 196.509 29.7429 195.906 29.7429ZM196.149 28.3125C196.779 28.3125 197.309 28.1888 197.741 27.9414C198.178 27.694 198.506 27.3746 198.726 26.9833C198.951 26.592 199.064 26.1804 199.064 25.7486V24.2912C198.996 24.3722 198.848 24.4464 198.618 24.5138C198.393 24.5768 198.133 24.633 197.836 24.6825C197.543 24.7275 197.258 24.768 196.979 24.804C196.704 24.8355 196.482 24.8625 196.311 24.8849C195.897 24.9389 195.51 25.0266 195.15 25.1481C194.795 25.265 194.507 25.4427 194.287 25.6811C194.071 25.915 193.963 26.2344 193.963 26.6392C193.963 27.1925 194.168 27.6108 194.577 27.8942C194.991 28.1731 195.515 28.3125 196.149 28.3125ZM202.915 26.8551H204.615C204.651 27.3229 204.862 27.6783 205.249 27.9212C205.64 28.1641 206.149 28.2855 206.774 28.2855C207.413 28.2855 207.959 28.1551 208.414 27.8942C208.868 27.6288 209.095 27.2015 209.095 26.6122C209.095 26.2659 209.01 25.9645 208.839 25.7081C208.668 25.4472 208.427 25.2448 208.117 25.1009C207.806 24.9569 207.44 24.8849 207.017 24.8849H205.236V23.4545H207.017C207.651 23.4545 208.119 23.3106 208.42 23.0227C208.726 22.7348 208.879 22.375 208.879 21.9432C208.879 21.4799 208.715 21.1088 208.387 20.8299C208.058 20.5465 207.593 20.4048 206.99 20.4048C206.383 20.4048 205.877 20.542 205.472 20.8164C205.067 21.0863 204.853 21.4349 204.831 21.8622H203.158C203.176 21.3045 203.346 20.8119 203.67 20.3846C203.994 19.9528 204.435 19.6154 204.993 19.3725C205.551 19.1251 206.189 19.0014 206.909 19.0014C207.638 19.0014 208.27 19.1296 208.805 19.386C209.345 19.6379 209.761 19.982 210.053 20.4183C210.35 20.8501 210.498 21.3404 210.498 21.8892C210.498 22.474 210.334 22.9463 210.006 23.3061C209.678 23.666 209.266 23.9223 208.771 24.0753V24.1832C209.163 24.2102 209.502 24.3362 209.79 24.5611C210.082 24.7815 210.31 25.0716 210.471 25.4315C210.633 25.7868 210.714 26.1804 210.714 26.6122C210.714 27.242 210.546 27.7907 210.208 28.2585C209.871 28.7218 209.408 29.0817 208.818 29.3381C208.229 29.59 207.557 29.7159 206.801 29.7159C206.068 29.7159 205.411 29.5967 204.831 29.3583C204.251 29.1154 203.79 28.7803 203.448 28.353C203.11 27.9212 202.933 27.4219 202.915 26.8551ZM216.001 29.7429C215.344 29.7429 214.748 29.6192 214.213 29.3718C213.677 29.1199 213.252 28.7578 212.938 28.2855C212.623 27.8087 212.465 27.233 212.465 26.5582C212.465 25.9645 212.582 25.4832 212.816 25.1143C213.05 24.741 213.363 24.4486 213.754 24.2372C214.145 24.0258 214.577 23.8684 215.049 23.7649C215.526 23.657 216.005 23.5715 216.487 23.5085C217.116 23.4276 217.627 23.3668 218.018 23.3263C218.414 23.2814 218.702 23.2071 218.882 23.1037C219.066 23.0002 219.158 22.8203 219.158 22.5639V22.5099C219.158 21.8442 218.976 21.3269 218.612 20.9581C218.252 20.5893 217.706 20.4048 216.972 20.4048C216.212 20.4048 215.616 20.5713 215.184 20.9041C214.753 21.237 214.449 21.5923 214.273 21.9702L212.762 21.4304C213.032 20.8007 213.392 20.3104 213.842 19.9595C214.296 19.6042 214.791 19.3568 215.326 19.2173C215.866 19.0734 216.397 19.0014 216.918 19.0014C217.251 19.0014 217.634 19.0419 218.065 19.1229C218.502 19.1993 218.922 19.359 219.327 19.6019C219.736 19.8448 220.076 20.2114 220.346 20.7017C220.616 21.192 220.751 21.8487 220.751 22.6719V29.5H219.158V28.0966H219.077C218.97 28.3215 218.79 28.5621 218.538 28.8185C218.286 29.0749 217.951 29.2931 217.532 29.473C217.114 29.6529 216.604 29.7429 216.001 29.7429ZM216.244 28.3125C216.873 28.3125 217.404 28.1888 217.836 27.9414C218.272 27.694 218.601 27.3746 218.821 26.9833C219.046 26.592 219.158 26.1804 219.158 25.7486V24.2912C219.091 24.3722 218.943 24.4464 218.713 24.5138C218.488 24.5768 218.227 24.633 217.93 24.6825C217.638 24.7275 217.352 24.768 217.074 24.804C216.799 24.8355 216.577 24.8625 216.406 24.8849C215.992 24.9389 215.605 25.0266 215.245 25.1481C214.89 25.265 214.602 25.4427 214.381 25.6811C214.166 25.915 214.058 26.2344 214.058 26.6392C214.058 27.1925 214.262 27.6108 214.672 27.8942C215.085 28.1731 215.609 28.3125 216.244 28.3125ZM222.551 32.4688V28.0156H223.414C223.626 27.7952 223.808 27.5568 223.961 27.3004C224.114 27.044 224.246 26.7404 224.359 26.3896C224.476 26.0342 224.575 25.6024 224.656 25.0941C224.737 24.5813 224.809 23.9628 224.872 23.2386L225.222 19.1364H231.808V28.0156H233.4V32.4688H231.808V29.5H224.143V32.4688H222.551ZM225.222 28.0156H230.215V20.6207H226.707L226.437 23.2386C226.324 24.3227 226.185 25.2695 226.019 26.0792C225.852 26.8888 225.587 27.5343 225.222 28.0156Z" fill="#232323"/>
<path d="M307 0V13L320 13L307 0Z" fill="#B6FFFB"/>
<rect x="307" y="13" width="13" height="33" fill="#B6FFFB"/>
</svg>
