<svg width="25" height="24" viewBox="0 0 25 24" fill="none" xmlns="http://www.w3.org/2000/svg">
<path opacity="0.2" d="M8.00007 20.25L5.75007 20.25C5.55115 20.25 5.36039 20.171 5.21973 20.0303C5.07908 19.8897 5.00007 19.6989 5.00007 19.5L5.00007 4.5C5.00007 4.30109 5.07908 4.11032 5.21974 3.96967C5.36039 3.82902 5.55115 3.75 5.75007 3.75L8.00007 3.75C8.19898 3.75 8.38974 3.82902 8.5304 3.96967C8.67105 4.11032 8.75007 4.30109 8.75007 4.5L8.75007 19.5C8.75007 19.6989 8.67105 19.8897 8.5304 20.0303C8.38974 20.171 8.19898 20.25 8.00007 20.25ZM11.7501 4.52156L11.7501 19.4784C11.7501 20.1497 12.5254 20.4994 13.0035 20.0409L20.2691 13.1278C20.4213 12.9812 20.5423 12.8055 20.625 12.611C20.7076 12.4166 20.7502 12.2075 20.7502 11.9962C20.7502 11.785 20.7076 11.5759 20.625 11.3814C20.5423 11.187 20.4213 11.0113 20.2691 10.8647L13.0035 3.95156C12.5254 3.50062 11.7501 3.85031 11.7501 4.52156Z" fill="#232323"/>
<path d="M9.49988 19.5L9.49988 4.5C9.49988 4.10217 9.34184 3.72064 9.06054 3.43934C8.77923 3.15803 8.3977 3 7.99988 3L5.74988 3C5.35205 3 4.97052 3.15803 4.68922 3.43934C4.40791 3.72064 4.24988 4.10217 4.24988 4.5L4.24988 19.5C4.24988 19.8978 4.40791 20.2794 4.68922 20.5607C4.97052 20.842 5.35205 21 5.74988 21L7.99988 21C8.3977 21 8.77923 20.842 9.06054 20.5607C9.34184 20.2794 9.49988 19.8978 9.49988 19.5ZM5.74988 19.5L5.74988 4.5L7.99988 4.5L7.99988 19.5L5.74988 19.5ZM10.9999 4.5225L10.9999 19.4775C10.9984 19.7748 11.0844 20.066 11.2471 20.3148C11.4098 20.5637 11.642 20.7592 11.9149 20.8772C12.181 20.9937 12.4758 21.0284 12.7617 20.9766C13.0476 20.9248 13.3115 20.789 13.5199 20.5866L20.7864 13.6744C21.012 13.4578 21.1916 13.1978 21.3142 12.91C21.4368 12.6223 21.5 12.3128 21.5 12C21.5 11.6872 21.4368 11.3777 21.3142 11.09C21.1916 10.8022 21.012 10.5422 20.7864 10.3256L13.5199 3.41344C13.3115 3.21096 13.0476 3.07517 12.7617 3.02341C12.4758 2.97164 12.181 3.00625 11.9149 3.12281C11.642 3.24077 11.4098 3.43633 11.2471 3.68518C11.0844 3.93403 10.9984 4.2252 10.9999 4.5225ZM19.7524 11.4122C19.8307 11.4888 19.8929 11.5802 19.9354 11.6811C19.9778 11.7821 19.9997 11.8905 19.9997 12C19.9997 12.1095 19.9778 12.2179 19.9354 12.3189C19.8929 12.4198 19.8307 12.5112 19.7524 12.5878L12.4999 19.4859L12.4999 4.51312L19.7524 11.4122Z" fill="#232323"/>
</svg>
